<svg width="413" height="459" viewBox="0 0 413 459" fill="none" xmlns="http://www.w3.org/2000/svg">
<path d="M142.907 388.481C167.853 393.151 193.229 393.425 217.871 389.291C266.258 381.379 308.807 354.199 339.059 316.937C360.709 290.219 370.883 257.883 378.567 224.377C381.601 211.301 383.977 197.806 382.487 184.265C377.748 141.262 336.847 111.273 295.64 108.719C275.887 107.526 254.585 112.113 239.116 124.053C217.899 140.431 205.759 165.888 182.92 180.821C154.343 199.492 116.897 199.307 84.9016 211.742C61.2445 220.9 40.2565 237.754 29.3719 260.608C20.4164 279.399 18.8466 302.701 27.0259 322.812C35.596 343.909 60.3956 357.149 79.812 366.847C99.8343 376.992 121.083 384.277 142.907 388.481Z" fill="#EEFFC4"/>
<path d="M247.677 219.082L191.464 210.683C191.101 210.683 190.98 211.023 190.98 211.348V259.172C190.98 263.751 159.042 275.648 158.73 275.043L158.691 280.104C158.689 281.047 159.518 281.884 160.574 281.884H161.276C161.28 281.884 161.285 281.884 161.291 281.884L208.422 290.634C210.608 290.634 212.769 290.146 214.749 289.317L240.661 278.404C245.327 276.442 248.268 272.222 248.268 267.621V219.747C248.268 219.422 248.04 219.082 247.677 219.082Z" fill="#0E1004"/>
<path d="M185.29 207.899V255.734C185.29 260.451 182.254 264.746 177.487 266.782L160.006 274.243C158.863 274.731 159.253 276.261 160.518 276.261L208.549 285.011C210.707 285.011 212.84 284.585 214.794 283.763L234.162 275.609C238.965 273.586 242.032 269.272 242.032 264.533V216.651C242.032 216.455 241.853 216.296 241.634 216.296L185.686 207.544C185.467 207.544 185.29 207.703 185.29 207.899Z" fill="white"/>
<path d="M185.765 208.039V255.734C185.765 260.614 182.588 265.123 177.673 267.221L160.193 274.682C159.902 274.805 159.762 275.033 159.814 275.293C159.861 275.519 160.074 275.784 160.518 275.784C160.548 275.784 160.576 275.786 160.604 275.792L208.591 284.536C210.659 284.529 212.738 284.112 214.608 283.324L233.976 275.17C238.579 273.231 241.553 269.057 241.553 264.533V216.765L185.765 208.039ZM208.548 285.489C208.518 285.489 208.49 285.485 208.462 285.481L160.472 276.737C159.68 276.718 159.028 276.208 158.882 275.482C158.738 274.781 159.114 274.105 159.818 273.806L177.299 266.343C181.863 264.395 184.811 260.231 184.811 255.734V207.899C184.811 207.441 185.203 207.068 185.685 207.068C185.711 207.068 185.735 207.07 185.761 207.073L241.676 215.82C242.139 215.842 242.507 216.206 242.507 216.651V264.533C242.507 269.442 239.304 273.961 234.346 276.048L214.978 284.202C212.979 285.044 210.756 285.489 208.548 285.489Z" fill="#0E1004"/>
<path d="M335.061 257.416L328.79 263.27L96.2695 223.034L98.7606 72.5144L106.285 68.4753C107.666 67.7381 109.255 67.4882 110.795 67.7675L331.492 107.583C334.804 108.18 337.214 111.063 337.214 114.429L337.26 252.34C337.26 254.264 336.464 256.102 335.061 257.416Z" fill="#0E1004"/>
<path d="M323.406 264.1L100.832 223.912C98.065 223.41 96.0527 221.003 96.0527 218.191V78.2602C96.0527 74.6355 99.3319 71.8958 102.897 72.5397L325.473 112.728C328.237 113.227 330.25 115.636 330.25 118.448V258.38C330.25 262.002 326.973 264.744 323.406 264.1Z" fill="white"/>
<path d="M323.487 263.632C325.048 263.914 326.64 263.492 327.856 262.474C329.074 261.458 329.772 259.965 329.772 258.381V118.448C329.772 115.864 327.926 113.656 325.383 113.198L102.809 73.0078C101.249 72.7255 99.6564 73.1477 98.4395 74.1634C97.2228 75.1816 96.525 76.6726 96.525 78.2601V218.191C96.525 220.775 98.3705 222.983 100.913 223.444L323.487 263.632ZM324.442 264.669C324.068 264.669 323.692 264.636 323.318 264.568L100.744 224.379C97.747 223.839 95.5723 221.236 95.5723 218.191V78.2601C95.5723 76.3903 96.395 74.6315 97.8286 73.4324C99.2624 72.2357 101.139 71.7387 102.978 72.0717L325.552 112.259C328.548 112.8 330.725 115.403 330.725 118.448V258.381C330.725 260.248 329.902 262.007 328.469 263.205C327.325 264.159 325.902 264.669 324.442 264.669Z" fill="#0E1004"/>
<path d="M287.983 232.319L134.29 204.569C133.369 204.402 132.699 203.602 132.699 202.665V104.506C132.699 103.301 133.791 102.389 134.978 102.602L288.67 130.354C289.591 130.521 290.261 131.322 290.261 132.258V230.417C290.261 231.623 289.171 232.535 287.983 232.319Z" fill="white"/>
<path d="M288.071 231.85C288.496 231.928 288.932 231.815 289.262 231.536C289.596 231.258 289.788 230.851 289.788 230.419V132.259C289.788 131.553 289.282 130.949 288.587 130.825L134.895 103.072C134.469 102.997 134.033 103.11 133.701 103.389C133.368 103.667 133.177 104.075 133.177 104.509V202.666C133.177 203.372 133.681 203.976 134.377 204.1L288.071 231.85ZM288.331 232.828C288.189 232.828 288.044 232.815 287.901 232.79L134.207 205.04C133.058 204.831 132.225 203.835 132.225 202.666V104.509C132.225 103.792 132.54 103.117 133.09 102.658C133.639 102.199 134.358 102.008 135.064 102.135L288.757 129.887C289.906 130.094 290.739 131.092 290.739 132.259V230.419C290.739 231.136 290.425 231.808 289.874 232.267C289.438 232.632 288.89 232.828 288.331 232.828Z" fill="#C9FA4C"/>
<path d="M296.803 296.809C295.14 290.592 285.165 287.857 274.519 290.697C263.871 293.54 256.585 300.885 258.246 307.104C259.904 313.321 269.884 316.057 280.53 313.214C291.177 310.371 298.462 303.026 296.803 296.809Z" fill="white"/>
<path d="M282.813 290.045C280.235 290.045 277.46 290.403 274.637 291.156C269.565 292.509 265.114 294.928 262.098 297.969C259.15 300.941 257.943 304.141 258.7 306.977C260.291 312.932 270.026 315.523 280.401 312.753C290.777 309.982 297.926 302.884 296.338 296.93C295.179 292.598 289.707 290.045 282.813 290.045ZM272.303 314.802C264.941 314.802 259.048 311.981 257.779 307.225C256.931 304.046 258.224 300.521 261.422 297.298C264.554 294.141 269.16 291.632 274.389 290.237C285.271 287.33 295.532 290.222 297.257 296.684C298.982 303.147 291.532 310.767 280.647 313.672C277.775 314.441 274.945 314.802 272.303 314.802Z" fill="#0E1004"/>
<path d="M262.663 308.891C263.88 307.94 265.331 307.329 266.869 307.129C271.596 306.515 272.353 306.012 281.833 301.305C288.93 297.782 297.141 302.045 301.325 296.056C303.758 292.577 292.675 279.041 275.366 282.957C265.515 285.187 266.909 290.175 253.977 297.832C253.977 297.832 200.67 331.121 189.522 320.215C177.152 308.114 166.242 289.149 166.242 289.149L134.031 328.128C134.031 328.128 174.753 356.007 199.122 354.972C213.384 354.367 262.663 308.891 262.663 308.891Z" fill="white"/>
<path d="M134.729 328.027C139.084 330.939 175.081 354.522 197.778 354.524C198.225 354.524 198.663 354.516 199.097 354.496C213.023 353.905 261.844 308.995 262.336 308.54C262.345 308.532 262.356 308.523 262.365 308.515C263.651 307.51 265.185 306.866 266.802 306.657C271.129 306.096 271.95 305.687 279.792 301.785L281.617 300.88C284.766 299.315 288.031 299.242 291.189 299.169C295.21 299.078 298.685 298.999 300.93 295.784C301.489 294.983 301.073 293.311 299.872 291.523C297.126 287.434 288.485 280.476 275.467 283.423C270.23 284.606 268.233 286.612 265.469 289.386C263.098 291.766 260.149 294.729 254.213 298.241C252.355 299.403 214.539 322.869 196.47 322.871C193.363 322.871 190.841 322.176 189.186 320.557C178.132 309.744 168.135 293.287 166.174 289.977L134.729 328.027ZM197.793 355.476C173.418 355.476 134.159 328.797 133.758 328.522C133.647 328.447 133.574 328.328 133.555 328.195C133.537 328.063 133.575 327.928 133.66 327.825L165.872 288.845C165.973 288.725 166.123 288.661 166.279 288.675C166.436 288.688 166.574 288.777 166.653 288.912C166.762 289.102 177.671 307.959 189.85 319.875C200.607 330.396 253.189 297.759 253.719 297.428C259.558 293.972 262.461 291.056 264.793 288.714C267.672 285.826 269.749 283.739 275.257 282.493C288.778 279.433 297.788 286.715 300.664 290.991C302.131 293.173 302.522 295.17 301.711 296.33C299.188 299.939 295.312 300.027 291.209 300.122C288.158 300.191 285.001 300.264 282.042 301.732L280.217 302.64C272.413 306.522 271.408 307.019 266.925 307.602C265.484 307.787 264.116 308.36 262.966 309.255C260.75 311.299 213.376 354.843 199.137 355.448C198.695 355.467 198.245 355.476 197.793 355.476Z" fill="#0E1004"/>
<path d="M112.937 229.743C94.5714 223.799 64.5052 219.351 52.4641 220.836C39.0948 222.482 23.9796 237.402 33.9089 297.18C35.8543 308.891 37.3005 319.469 39.3593 328.841C51.781 346.881 68.2576 362.3 90.1142 373.51C99.7756 378.463 139.33 389.912 186.358 392.908C165.4 370.938 158.858 353.13 157.197 347.505C156.962 346.711 157.717 345.981 158.505 346.242L160.825 347.012C162.764 347.653 164.89 346.911 165.998 345.196C171.718 336.349 187.645 309.087 180.062 290.455C177.696 284.647 144.67 240.017 112.937 229.743Z" fill="#0E1004"/>
<path d="M113.78 162.494C113.78 162.494 118.181 169.087 118.45 174.54C118.521 175.98 119.122 180.59 122.67 185.628C123.013 186.116 122.937 186.775 122.487 187.177L119.096 190.201C118.862 190.409 118.727 190.7 118.725 191.008C118.714 192.931 118.655 200.042 118.424 201.367C118.155 202.902 116.921 204.26 116.309 204.591C114.69 205.465 107.676 204.572 107.676 204.572C107.676 204.572 105.794 204.75 102.106 214.733C98.1233 225.515 106.385 229.589 106.385 229.589C109.487 231.209 109.545 232.778 106.188 233.847C94.613 237.534 70.681 240.23 58.5962 226.668C57.9067 225.894 58.251 224.654 59.2618 224.355C89.9659 215.299 75.333 189.202 75.9818 189.03C77.6421 188.591 87.1782 178.541 92.7665 175.683C96.5762 173.734 101.196 176.553 104.295 173.604L113.78 162.494Z" fill="white"/>
<path d="M76.5137 189.314C76.583 189.519 76.6897 189.805 76.7941 190.085C77.9986 193.323 81.663 203.18 77.2708 211.955C74.3161 217.861 68.3027 222.186 59.3984 224.814C59.0784 224.906 58.8428 225.143 58.7517 225.464C58.6622 225.776 58.7378 226.109 58.9538 226.352C71.056 239.934 95.0497 236.897 106.046 233.394C107.959 232.783 108.213 232.178 108.233 231.945C108.254 231.7 108.095 231.02 106.166 230.011C106.089 229.974 97.5768 225.625 101.661 214.568C105.18 205.045 107.122 204.146 107.633 204.099C107.668 204.094 107.704 204.094 107.738 204.099C110.392 204.436 115.004 204.755 116.084 204.172C116.611 203.888 117.718 202.644 117.956 201.286C118.134 200.268 118.225 195.31 118.251 191.006C118.253 190.567 118.447 190.143 118.781 189.846L122.172 186.82C122.442 186.581 122.488 186.194 122.282 185.903C118.448 180.457 118.023 175.503 117.976 174.564C117.76 170.187 114.751 164.958 113.725 163.294L104.66 173.915C104.649 173.927 104.638 173.938 104.626 173.949C102.784 175.703 100.459 175.582 98.2127 175.466C96.4363 175.376 94.6004 175.281 92.9855 176.107C89.7498 177.762 85.1878 181.851 81.522 185.137C78.9465 187.446 77.3898 188.826 76.5137 189.314ZM86.2511 237.312C76.1134 237.312 65.2594 234.861 58.2426 226.985C57.8081 226.497 57.6559 225.832 57.8358 225.201C58.0153 224.573 58.4989 224.084 59.129 223.899C67.7697 221.351 73.587 217.189 76.4188 211.529C80.6257 203.124 77.0698 193.56 75.9012 190.418C75.493 189.319 75.408 189.09 75.5462 188.824C75.6077 188.705 75.7319 188.604 75.8616 188.57C76.4336 188.419 78.6971 186.39 80.8861 184.427C84.5929 181.104 89.2058 176.97 92.5515 175.26C94.394 174.315 96.3603 174.418 98.2618 174.515C100.394 174.625 102.409 174.728 103.951 173.275L113.42 162.184C113.517 162.07 113.656 162.01 113.81 162.018C113.959 162.027 114.095 162.104 114.178 162.229C114.361 162.503 118.655 168.997 118.928 174.517C118.972 175.408 119.378 180.123 123.061 185.355C123.542 186.037 123.433 186.973 122.806 187.532L119.415 190.556C119.28 190.677 119.205 190.838 119.204 191.012C119.191 193.119 119.131 200.098 118.895 201.449C118.61 203.074 117.32 204.587 116.537 205.009C114.9 205.893 108.852 205.198 107.73 205.058C107.414 205.224 105.668 206.47 102.555 214.899C98.7744 225.132 106.277 229.004 106.598 229.163C108.424 230.116 109.266 231.052 109.182 232.027C109.1 232.972 108.169 233.717 106.335 234.3C101.459 235.853 94.0678 237.312 86.2511 237.312Z" fill="#0E1004"/>
<path d="M122.377 185.305C122.13 185.305 121.92 185.113 121.902 184.862C121.883 184.599 122.081 184.371 122.343 184.352C123.392 184.276 124.194 183.854 124.796 183.063C126.57 180.725 125.984 175.976 125.747 174.5L101.714 178.272C101.456 178.313 101.211 178.134 101.17 177.876C101.129 177.616 101.307 177.373 101.567 177.332L126.062 173.486C126.316 173.445 126.551 173.611 126.602 173.861C126.657 174.132 127.922 180.519 125.556 183.637C124.789 184.646 123.731 185.208 122.412 185.303C122.4 185.303 122.388 185.305 122.377 185.305Z" fill="#0E1004"/>
<path d="M101.552 188.178C99.5291 188.178 96.3543 187.433 94.6314 183.203C93.5734 180.603 93.9195 178.298 95.5572 177.035C97.259 175.724 99.8786 175.881 101.929 177.42C102.697 177.999 103.707 179.609 103.819 179.789C103.958 180.013 103.889 180.306 103.665 180.446C103.442 180.584 103.148 180.515 103.009 180.291C102.73 179.839 101.887 178.58 101.357 178.182C99.6485 176.899 97.5028 176.738 96.1391 177.79C94.8414 178.791 94.6137 180.631 95.5139 182.843C97.8292 188.531 102.926 187.108 103.142 187.044C103.395 186.971 103.659 187.115 103.733 187.367C103.807 187.618 103.664 187.883 103.413 187.958C103.391 187.965 102.637 188.178 101.552 188.178Z" fill="#0E1004"/>
<path d="M122.819 146.16C120.568 142.388 118.147 139.147 110.749 137.69C105.682 136.692 97.4223 140.43 93.3559 144.747C93.0163 145.106 92.4768 145.117 92.1934 144.759C91.3197 143.658 89.2445 141.166 87.4065 140.946C82.0865 140.313 76.637 147.206 74.7006 150.751C73.2866 153.339 70.9024 159.193 69.6992 165.995C69.6238 166.419 69.2358 166.736 68.8177 166.697C67.2149 166.542 64.0011 166.551 61.1476 168.662C56.06 172.426 56.6113 177.941 56.6707 178.615C57.3622 186.472 65.3476 192.276 71.4012 195.424C75.5098 197.559 77.0521 197.864 79.4701 198.424C79.6096 198.456 79.7559 198.448 79.8932 198.4C82.0314 198.714 85.6638 198.876 89.7102 197.473C96.1406 195.241 95.6547 184.576 95.6547 184.576L94.8451 182.564C94.3546 181.346 94.2849 179.97 94.7822 178.755C96.2996 175.045 101.9 177.831 102.107 177.788C112.642 175.6 116.365 172.516 118.278 170.416C125.136 162.888 128.267 155.3 122.819 146.16Z" fill="#0E1004"/>
<path d="M124.137 308.564C124.111 308.56 124.085 308.558 124.06 308.553L101.119 306.746C80.0909 305.087 59.81 298.202 42.1419 286.689C42.005 286.601 41.8675 286.51 41.7295 286.422C38.9599 284.636 35.5727 284.077 32.3756 284.879L29.26 285.663C27.2956 286.155 25.4783 287.13 24.0037 288.518C23.6622 288.839 23.4412 289.084 23.4414 289.168L26.3998 306.221C39.5429 333.977 59.5795 357.851 90.1114 373.509C96.4153 376.742 115.448 382.739 140.978 387.349C140.935 381.183 140.875 372.683 140.875 372.672V328.997C140.875 319.072 133.871 310.525 124.137 308.564Z" fill="#0E1004"/>
<path d="M26.8598 306.075C41.1777 336.283 62.5328 358.829 90.3304 373.086C95.8983 375.94 113.824 381.925 140.499 386.78L140.42 375.464C140.408 373.775 140.4 372.678 140.4 372.673V328.998C140.4 319.342 133.528 310.95 124.058 309.034L123.995 309.026L101.083 307.22C80.018 305.561 59.5471 298.599 41.8835 287.09L41.4729 286.824C38.823 285.115 35.5502 284.575 32.4935 285.343L29.3776 286.124C27.4742 286.602 25.7293 287.551 24.3318 288.866C24.1188 289.066 24.0032 289.191 23.9423 289.26L26.8598 306.075ZM140.979 387.828C140.951 387.828 140.923 387.823 140.895 387.819C116.654 383.442 96.8902 377.52 89.8955 373.932C75.2456 366.42 62.2888 356.594 51.3857 344.725C41.4176 333.875 32.8671 320.989 25.971 306.426C25.9525 306.387 25.9396 306.344 25.9323 306.303L22.9737 289.251C22.969 289.223 22.9668 289.197 22.9668 289.169C22.9659 288.943 23.0688 288.745 23.6789 288.171C25.1946 286.746 27.0847 285.717 29.1454 285.201L32.2613 284.418C35.5724 283.587 39.1182 284.17 41.9892 286.023L42.4032 286.292C59.9343 297.715 80.2511 304.623 101.158 306.271L124.202 308.094C124.213 308.094 124.222 308.096 124.232 308.098C134.153 310.097 141.353 318.886 141.353 328.998V372.673L141.456 387.348C141.457 387.49 141.395 387.623 141.286 387.716C141.2 387.787 141.091 387.828 140.979 387.828Z" fill="white"/>
<path d="M92.5817 386.773C57.7352 379.828 42.9161 371.479 32.2431 365.216C25.4318 361.22 21.252 353.916 21.252 346.023V294.091C21.252 288.609 27.1706 285.168 31.9392 287.876C33.6968 288.874 35.3764 289.914 37.0016 290.977C54.5776 302.46 74.7823 309.292 95.717 310.943L118.839 312.766C128.593 314.711 135.615 323.267 135.615 333.205C135.615 333.205 135.434 390.354 134.735 390.819C131.551 392.941 92.5817 386.773 92.5817 386.773Z" fill="white"/>
<path d="M119.264 383.256C119.227 383.256 119.189 383.252 119.151 383.241C112.433 381.612 106.083 379.843 100.789 378.128C95.9717 376.567 92.204 375.117 89.8939 373.931C86.1294 372.001 82.4376 369.898 78.921 367.682C56.3287 353.436 38.5484 332.901 26.0735 306.651C25.9607 306.412 26.0617 306.128 26.2992 306.016C26.5373 305.902 26.8211 306.003 26.9341 306.242C39.3302 332.327 56.9919 352.728 79.4289 366.875C82.9218 369.078 86.5892 371.166 90.3288 373.086C92.5619 374.23 96.3811 375.698 101.083 377.222C106.354 378.928 112.68 380.691 119.376 382.315C119.632 382.378 119.789 382.636 119.727 382.89C119.674 383.11 119.479 383.256 119.264 383.256Z" fill="#0E1004"/>
<path d="M181.988 52.8046L211.923 64.8235L214.015 63.0525L230.89 18.0215L227.345 16.6286L199.73 1.64199L181.08 45.9765L181.988 52.8046Z" fill="white"/>
<path d="M217.884 37.1597C217.762 37.1597 217.642 37.1163 217.55 37.0269C213.136 32.7644 209.071 30.5939 204.215 28.2011C200.951 26.5915 199.053 25.7759 197.219 24.9873C196.683 24.7597 196.151 24.5294 195.592 24.2855C195.351 24.1798 195.241 23.898 195.347 23.6569C195.452 23.4157 195.734 23.3073 195.975 23.413C196.532 23.6569 197.062 23.8845 197.593 24.1121C199.44 24.9061 201.349 25.7244 204.635 27.3449C209.567 29.7782 213.7 31.984 218.214 36.3413C218.404 36.5229 218.407 36.8236 218.225 37.0133C218.133 37.1109 218.008 37.1597 217.884 37.1597Z" fill="#0E1004"/>
<path d="M216.183 42.9011C216.06 42.9011 215.94 42.8558 215.847 42.7652C212.045 39.0321 208.722 37.4227 204.512 35.387C203.9 35.0912 203.272 34.7875 202.626 34.4677C200.752 33.5431 198.759 32.5945 196.704 31.6486C196.465 31.5393 196.362 31.2569 196.472 31.0171C196.581 30.7773 196.863 30.6733 197.102 30.7826C199.166 31.7338 201.165 32.6851 203.048 33.615C203.691 33.9321 204.316 34.2332 204.925 34.529C209.047 36.5221 212.604 38.2407 216.516 42.0857C216.702 42.2696 216.705 42.5707 216.518 42.7599C216.428 42.8531 216.305 42.9011 216.183 42.9011Z" fill="#0E1004"/>
<path d="M214.082 48.334C213.959 48.334 213.836 48.2869 213.745 48.1954C210.435 44.8856 206.788 43.0608 202.924 41.1288C202.071 40.7026 201.211 40.2712 200.351 39.8242C200.116 39.7013 200.027 39.4137 200.147 39.1811C200.27 38.9484 200.558 38.8569 200.793 38.9771C201.645 39.4242 202.5 39.8529 203.35 40.2765C207.284 42.2451 210.999 44.1013 214.416 47.5209C214.602 47.7065 214.602 48.0098 214.416 48.1954C214.322 48.2869 214.202 48.334 214.082 48.334Z" fill="#0E1004"/>
<path d="M212.272 54.4126C212.132 54.4126 211.991 54.3529 211.898 54.2334C208.348 49.7744 195.746 44.422 190.099 42.6768C189.847 42.5989 189.708 42.334 189.785 42.0821C189.862 41.8302 190.129 41.6899 190.381 41.7678C196.123 43.5416 208.966 49.0186 212.643 53.6413C212.807 53.8464 212.773 54.1451 212.568 54.3087C212.48 54.3788 212.376 54.4126 212.272 54.4126Z" fill="#0E1004"/>
<path d="M392.117 168.284C392.006 168.284 391.896 168.247 391.806 168.171C389.158 165.894 387.689 164.251 387.628 164.182C387.452 163.988 387.468 163.685 387.665 163.511C387.863 163.337 388.163 163.353 388.339 163.548C388.352 163.566 389.832 165.214 392.428 167.447C392.628 167.621 392.649 167.921 392.478 168.121C392.383 168.229 392.251 168.284 392.117 168.284Z" fill="#0E1004"/>
<path d="M347.094 51.7928C348.613 52.9715 350.17 54.0994 351.764 55.1711L352.755 55.8381C353.883 56.7892 354.022 58.477 353.066 59.5968L347.341 66.348L351.019 69.1208C352.672 70.6425 352.407 73.3216 350.494 74.495L349.09 75.0683C342.553 77.75 336.525 81.5302 331.269 86.2507C329.948 87.0571 328.261 86.9419 327.06 85.9613L319.369 80.989C312.569 76.5954 306.276 71.465 300.602 65.6943L295.41 60.4113C294.33 59.5406 294.164 57.9706 295.011 56.8963L299.013 51.0534C304.278 43.1877 310.48 35.9891 317.48 29.6183C318.42 28.4717 320.116 28.3163 321.25 29.2727L327.607 35.7185C330.173 38.3225 332.909 40.7551 335.794 43.0001L347.094 51.7928Z" fill="white"/>
<path d="M319.546 29.1179C319.479 29.1179 319.41 29.1206 319.34 29.1286C318.756 29.1822 318.225 29.461 317.855 29.9167C317.839 29.9354 317.823 29.9515 317.807 29.9676C310.84 36.3066 304.654 43.49 299.414 51.3166L295.407 57.1625C294.705 58.0604 294.849 59.3416 295.713 60.0385C295.729 60.0492 295.742 60.0627 295.755 60.0761L300.947 65.3564C306.587 71.095 312.875 76.2198 319.632 80.5861L327.325 85.5582C327.341 85.5689 327.354 85.5797 327.368 85.5904C328.399 86.432 329.852 86.5392 330.989 85.8611C336.293 81.1088 342.327 77.3268 348.915 74.625L350.282 74.0648C351.049 73.5824 351.539 72.7917 351.627 71.8884C351.719 70.9744 351.381 70.0925 350.703 69.468L347.06 66.726C346.956 66.6483 346.889 66.5303 346.873 66.399C346.859 66.2677 346.899 66.139 346.982 66.0372L352.708 59.288C353.088 58.8404 353.271 58.2749 353.225 57.6905C353.177 57.1143 352.909 56.5916 352.472 56.2163L351.504 55.5623C349.907 54.4902 348.328 53.3457 346.811 52.1636L335.508 43.3721C332.616 41.1232 329.847 38.66 327.274 36.052L320.916 29.603C320.549 29.2948 320.058 29.1179 319.546 29.1179ZM329.375 87.2576C328.453 87.2576 327.536 86.9493 326.786 86.3462L319.117 81.3876C312.299 76.9811 305.957 71.8107 300.266 66.0238L295.093 60.7622C293.847 59.733 293.638 57.8728 294.643 56.5996L298.626 50.7806C303.898 42.9057 310.128 35.6714 317.139 29.2868C317.675 28.6488 318.423 28.2548 319.254 28.1798C320.096 28.1021 320.916 28.3594 321.565 28.9062L327.952 35.3819C330.496 37.9604 333.235 40.3968 336.095 42.6189L347.395 51.4131C348.896 52.5818 350.459 53.7129 352.035 54.7716L353.029 55.439C353.04 55.4498 353.056 55.4605 353.07 55.4712C353.713 56.0126 354.104 56.7738 354.174 57.6128C354.241 58.4491 353.978 59.2639 353.434 59.9045L348.036 66.2704L351.314 68.739C352.249 69.5967 352.694 70.768 352.576 71.9822C352.456 73.1991 351.791 74.2605 350.748 74.8984C350.727 74.9118 350.703 74.9225 350.681 74.9306L349.277 75.5069C342.774 78.1738 336.827 81.9049 331.594 86.6009C331.573 86.6196 331.549 86.6384 331.522 86.6518C330.863 87.0592 330.118 87.2576 329.375 87.2576Z" fill="#0E1004"/>
<path d="M347.344 66.8228C347.243 66.8228 347.145 66.7917 347.06 66.727L342.954 63.6385C337.22 59.3186 331.982 54.3289 327.393 48.8088L324.452 45.2753C323.632 44.5355 322.719 44.4295 321.089 44.8821L317.612 46.0151C312.172 47.7819 307.015 50.3013 302.276 53.5011L294.901 58.8763C294.691 59.0315 294.391 58.985 294.236 58.7703C294.081 58.5581 294.127 58.2607 294.342 58.1055L301.73 52.7199C306.554 49.4606 311.795 46.905 317.317 45.1072L320.812 43.9716C322.268 43.5655 323.782 43.3637 325.119 44.5976C325.135 44.6105 325.15 44.6261 325.163 44.6416L328.125 48.2009C332.67 53.6641 337.851 58.6021 343.529 62.878L347.631 65.9665C347.843 66.1243 347.882 66.4244 347.727 66.6339C347.631 66.7581 347.489 66.8228 347.344 66.8228Z" fill="#0E1004"/>
<path d="M354.936 26.9613L349.705 22.4652C348.432 21.3738 346.54 21.4174 345.323 22.5686L342.684 25.0616C338.764 28.7685 335.447 33.0632 332.853 37.7962L329.614 43.7048C329.277 44.3199 329.396 45.082 329.905 45.561C332.271 47.79 338.579 55.084 344.246 58.418C345.212 58.9841 346.453 58.6384 347.011 57.6695L350.764 51.1594C352.963 47.3409 355.644 43.8218 358.736 40.6838L362.217 37.1538C363.624 35.725 363.42 33.3789 361.789 32.2168L360.072 30.9893C358.3 29.7238 356.588 28.3793 354.936 26.9613Z" fill="white"/>
<path d="M347.566 22.1515C346.877 22.1515 346.185 22.4076 345.645 22.9172L343.008 25.4104C339.117 29.0862 335.839 33.3315 333.266 38.0264L330.029 43.9366C329.798 44.3617 329.879 44.8876 330.228 45.2173C330.776 45.7323 331.542 46.5252 332.427 47.4435C335.509 50.6397 340.166 55.4681 344.485 58.0077C344.833 58.2147 345.245 58.2693 345.643 58.1657C346.046 58.0567 346.387 57.7978 346.594 57.4354L350.348 50.9231C352.566 47.0729 355.275 43.517 358.392 40.3507L361.874 36.8193C362.444 36.2389 362.733 35.4405 362.665 34.6285C362.594 33.8165 362.174 33.0781 361.509 32.604L359.79 31.3778C358.019 30.1107 356.278 28.7456 354.624 27.326L349.389 22.83C348.863 22.3776 348.212 22.1515 347.566 22.1515ZM345.245 59.1685C344.812 59.1685 344.384 59.054 344.002 58.8279C339.572 56.2256 334.86 51.3373 331.74 48.1056C330.863 47.1955 330.106 46.4107 329.574 45.9094C328.909 45.2827 328.754 44.2827 329.193 43.4788L332.433 37.5686C335.051 32.7865 338.389 28.4622 342.354 24.7183L344.991 22.2251C346.392 20.9035 348.55 20.8517 350.011 22.1052L355.245 26.6039C356.877 28.0044 358.594 29.3505 360.346 30.604L362.062 31.8301C362.954 32.465 363.518 33.4568 363.613 34.5468C363.706 35.6367 363.321 36.7103 362.553 37.4896L359.073 41.021C356.008 44.1273 353.351 47.6206 351.171 51.3999L347.422 57.9096C347.084 58.4954 346.536 58.9123 345.885 59.0867C345.673 59.1412 345.457 59.1685 345.245 59.1685Z" fill="#C9FA4C"/>
<path d="M358.729 41.1592C358.63 41.1592 358.528 41.1271 358.443 41.0629L354.385 38.0185C353.595 37.4273 353.092 36.5659 352.972 35.5868C352.849 34.6103 353.125 33.6499 353.743 32.8821L356.733 29.1797C356.899 28.9764 357.199 28.9443 357.405 29.1101C357.608 29.276 357.64 29.5756 357.474 29.7789L354.484 33.4814C354.029 34.0458 353.828 34.7521 353.916 35.4691C354.007 36.1887 354.377 36.8227 354.954 37.2588L359.015 40.3005C359.227 40.4583 359.269 40.7579 359.112 40.9693C359.018 41.0923 358.874 41.1592 358.729 41.1592Z" fill="#C9FA4C"/>
<path d="M352.793 41.3928C352.702 41.3928 352.612 41.3662 352.529 41.3128C348.353 38.5128 342.468 31.4701 342.217 31.1715C342.049 30.9688 342.078 30.6675 342.278 30.4995C342.481 30.3315 342.779 30.3581 342.947 30.5608C343.009 30.6328 348.996 37.7981 353.06 40.5208C353.278 40.6675 353.337 40.9635 353.19 41.1822C353.097 41.3182 352.948 41.3928 352.793 41.3928Z" fill="#C9FA4C"/>
<path d="M349.05 45.4263C348.95 45.4263 348.85 45.3946 348.763 45.3287C341.989 40.1268 339.021 36.0143 338.897 35.8429C338.744 35.6292 338.794 35.3311 339.008 35.1781C339.222 35.0251 339.52 35.0752 339.673 35.2889C339.702 35.3311 342.693 39.4673 349.343 44.5742C349.552 44.7325 349.591 45.0332 349.43 45.2416C349.338 45.363 349.196 45.4263 349.05 45.4263Z" fill="#C9FA4C"/>
<path d="M32.8469 147.493C27.5928 147.493 22.8023 145.968 18.9571 143.004C10.3705 136.382 7.74133 123.859 12.0961 110.323C12.1768 110.072 12.4446 109.934 12.6955 110.015C12.9459 110.096 13.0838 110.363 13.0031 110.614C8.77484 123.758 11.2791 135.879 19.5393 142.247C24.7049 146.231 31.6831 147.498 39.1845 145.813C46.6608 144.137 54.1634 139.662 60.3102 133.217C61.5211 131.948 68.036 134.237 71.9394 135.771C69.6409 132.253 66.022 126.336 66.7282 124.983C66.7335 124.973 66.7535 124.94 66.7595 124.93C76.7952 108.967 76.205 90.6408 65.3883 82.3012C59.9718 78.1242 52.6422 76.9427 44.7487 78.974C36.848 81.0075 29.0974 86.0581 22.9238 93.1972C22.7517 93.3953 22.4515 93.4168 22.2522 93.2449C22.0531 93.073 22.0314 92.7723 22.2035 92.5718C28.5024 85.2895 36.4248 80.1316 44.5114 78.0502C52.6948 75.945 60.316 77.1862 65.9702 81.547C77.1776 90.1874 77.8643 109.055 67.5679 125.434C67.2743 126.291 70.4548 131.859 73.5747 136.516C73.6914 136.69 73.6806 136.919 73.5479 137.084C73.4155 137.246 73.193 137.301 72.9987 137.223C67.0894 134.802 61.5932 133.27 60.9993 133.874C54.7243 140.454 47.0511 145.025 39.3931 146.744C37.1573 147.247 34.9641 147.493 32.8469 147.493Z" fill="#C9FA4C"/>
<path d="M33.7774 120.957L30.3979 123.477C29.9262 123.827 29.2581 123.74 28.8855 123.277L10.7049 100.711C10.3126 100.225 10.3993 99.5123 10.8965 99.1423L16.0248 95.3192C16.5226 94.9491 17.2321 95.0695 17.5871 95.5848L34.0188 119.454C34.355 119.945 34.2483 120.608 33.7774 120.957Z" fill="#0E1004"/>
<path d="M33.4315 130.642C32.8698 128.713 33.8915 126.79 35.7136 126.346C37.5357 125.903 39.468 127.106 40.0297 129.034C40.5914 130.962 39.5696 132.884 37.7475 133.327C35.9254 133.773 33.9929 132.568 33.4315 130.642Z" fill="#0E1004"/>
<path d="M49.2074 123.221C48.4948 121.089 49.4267 119.124 51.4337 118.468C53.44 117.81 55.317 118.857 56.0296 120.989C56.7041 123.003 55.9057 124.99 53.7844 125.686C51.7781 126.342 49.8819 125.238 49.2074 123.221ZM47.7713 114.745L47.1561 113.286C45.7718 110.287 45.6671 106.55 47.3775 102.158C48.9366 98.2596 49.6186 95.5444 48.7518 92.9534C47.769 90.0156 45.2492 89.1488 41.6182 90.2733C39.554 90.9503 37.7113 92.855 36.6442 94.4176L33.8652 90.285C35.2945 88.2843 38.2543 86.293 41.2928 85.2974C47.8859 83.1397 52.2354 86.2532 53.6996 90.6317C55.0094 94.5464 53.7748 98.0816 52.1208 102.266C50.6002 106.087 50.5306 108.921 51.6851 111.803L52.2433 113.281L47.7713 114.745Z" fill="#0E1004"/>
<path d="M142.581 16.124C149.328 30.2057 143.454 47.0836 129.462 53.8238C115.469 60.5641 98.656 54.6121 91.9091 40.5304C85.1623 26.4487 91.0363 9.57078 105.029 2.83055C119.021 -3.90967 135.835 2.04234 142.581 16.124Z" fill="#C9FA4C"/>
<path d="M138.935 16.8069C145.682 30.8881 139.808 47.7673 125.815 54.5092C111.823 61.2482 95.0099 55.2962 88.2628 41.215C81.5158 27.1337 87.3896 10.2546 101.382 3.51268C115.375 -3.22634 132.188 2.72562 138.935 16.8069Z" fill="white"/>
<path d="M113.49 1.20823C109.413 1.20823 105.358 2.12523 101.58 3.94495C87.8462 10.5582 82.0605 27.1872 88.6835 41.0108C91.9038 47.7298 97.5359 52.7862 104.542 55.2458C111.494 57.6855 118.972 57.2713 125.599 54.0803C139.334 47.4642 145.119 30.8352 138.496 17.0116C135.276 10.2926 129.644 5.23618 122.638 2.77655C119.649 1.72813 116.563 1.20823 113.49 1.20823ZM113.691 57.7683C110.51 57.7683 107.319 57.2313 104.227 56.1457C96.9799 53.6004 91.1551 48.3726 87.8244 41.4222C80.9749 27.1272 86.9603 9.92976 101.167 3.08507C108.024 -0.217297 115.761 -0.645782 122.953 1.87955C130.2 4.42203 136.025 9.64981 139.355 16.6002C146.205 30.8981 140.219 48.0955 126.013 54.9373C122.104 56.8199 117.908 57.7683 113.691 57.7683Z" fill="#C9FA4C"/>
<path d="M128.12 39.1377C128.029 39.1377 127.937 39.1101 127.857 39.0577L113.332 29.4086C113.231 29.3397 113.16 29.2376 113.132 29.119L110.073 16.1331C110.013 15.8767 110.172 15.6202 110.428 15.5595C110.682 15.4989 110.94 15.656 111 15.9125L114.016 28.7192L128.384 38.2635C128.603 38.4097 128.662 38.7047 128.517 38.9226C128.425 39.0605 128.274 39.1377 128.12 39.1377Z" fill="#0E1004"/>
<path d="M105.363 8.03199C105.794 8.93162 105.419 10.0083 104.526 10.4385C103.632 10.8686 102.559 10.4891 102.128 9.58948C101.697 8.69267 102.072 7.6131 102.966 7.18297C103.859 6.75283 104.933 7.13237 105.363 8.03199Z" fill="#0E1004"/>
<path d="M96.0417 14.9484C96.8614 15.5124 97.0734 16.6348 96.515 17.4558C95.9568 18.2797 94.8394 18.4898 94.0197 17.9258C93.1998 17.3618 92.9877 16.2394 93.5462 15.4156C94.1046 14.5946 95.2217 14.3845 96.0417 14.9484Z" fill="#0E1004"/>
<path d="M91.6172 25.4379C92.6063 25.5162 93.3486 26.3847 93.2749 27.3772C93.2013 28.3725 92.3395 29.1142 91.3502 29.0387C90.3612 28.9604 89.6189 28.0947 89.6925 27.0994C89.7664 26.1069 90.6279 25.3624 91.6172 25.4379Z" fill="#0E1004"/>
<path d="M92.741 37.2208C93.6345 36.7899 94.7082 37.1709 95.139 38.0693C95.5698 38.9678 95.1947 40.0448 94.3012 40.4757C93.4078 40.9065 92.3341 40.5282 91.9033 39.6271C91.4724 38.7287 91.8476 37.6516 92.741 37.2208Z" fill="#0E1004"/>
<path d="M99.845 46.4173C100.403 45.5935 101.52 45.385 102.341 45.9488C103.16 46.5125 103.372 47.6349 102.814 48.4587C102.255 49.2799 101.138 49.4884 100.318 48.9272C99.4985 48.3635 99.2866 47.2385 99.845 46.4173Z" fill="#0E1004"/>
<path d="M110.493 51.0919C110.567 50.0974 111.428 49.3554 112.418 49.4319C113.407 49.5084 114.149 50.3779 114.075 51.3699C114.002 52.3643 113.14 53.1089 112.151 53.0324C111.162 52.9534 110.42 52.0864 110.493 51.0919Z" fill="#0E1004"/>
<path d="M122.015 49.7967C121.584 48.899 121.959 47.8219 122.852 47.391C123.746 46.9601 124.82 47.3397 125.25 48.2399C125.681 49.1376 125.306 50.2173 124.413 50.6456C123.519 51.0764 122.445 50.6968 122.015 49.7967Z" fill="#0E1004"/>
<path d="M131.342 42.883C130.522 42.319 130.31 41.1961 130.868 40.3735C131.427 39.5509 132.544 39.342 133.364 39.906C134.184 40.4701 134.396 41.593 133.837 42.4156C133.279 43.2382 132.162 43.4471 131.342 42.883Z" fill="#0E1004"/>
<path d="M135.772 32.3912C134.783 32.3162 134.041 31.4463 134.114 30.4533C134.188 29.4603 135.05 28.7162 136.039 28.7938C137.028 28.8688 137.77 29.7387 137.696 30.7317C137.623 31.7247 136.761 32.4688 135.772 32.3912Z" fill="#0E1004"/>
<path d="M134.453 20.8033C133.56 21.232 132.486 20.8528 132.056 19.9543C131.625 19.053 132 17.9759 132.893 17.5472C133.787 17.1158 134.86 17.495 135.291 18.3936C135.722 19.2948 135.347 20.3719 134.453 20.8033Z" fill="#0E1004"/>
<path d="M127.542 11.4118C126.984 12.2326 125.867 12.4428 125.047 11.8797C124.227 11.3165 124.015 10.1931 124.574 9.3694C125.132 8.54853 126.249 8.3384 127.069 8.90152C127.889 9.46465 128.101 10.5881 127.542 11.4118Z" fill="#0E1004"/>
<path d="M116.898 6.73853C116.824 7.73251 115.962 8.47516 114.973 8.39891C113.984 8.32267 113.242 7.45294 113.316 6.45897C113.389 5.46499 114.251 4.72234 115.24 4.79858C116.229 4.87482 116.971 5.74456 116.898 6.73853Z" fill="#0E1004"/>
<path d="M378.676 291.606C378.571 291.66 378.445 291.675 378.323 291.639C378.071 291.561 377.929 291.296 378.004 291.045L378.944 287.931C379.021 287.677 379.286 287.535 379.538 287.612C379.791 287.687 379.933 287.952 379.857 288.206L378.917 291.32C378.878 291.448 378.789 291.549 378.676 291.606Z" fill="#0E1004"/>
<path d="M375.389 302.505C375.283 302.559 375.158 302.574 375.036 302.537C374.784 302.46 374.642 302.194 374.717 301.943L375.657 298.83C375.734 298.578 376 298.436 376.251 298.511C376.502 298.588 376.645 298.854 376.569 299.105L375.63 302.218C375.592 302.349 375.502 302.447 375.389 302.505Z" fill="#0E1004"/>
<path d="M373.688 294.287C373.58 294.341 373.451 294.354 373.328 294.315L370.273 293.345C370.023 293.265 369.884 292.997 369.964 292.746C370.044 292.494 370.311 292.355 370.562 292.435L373.617 293.407C373.867 293.486 374.007 293.755 373.926 294.006C373.887 294.132 373.799 294.23 373.688 294.287Z" fill="#0E1004"/>
<path d="M384.375 297.683C384.268 297.737 384.14 297.752 384.013 297.712L380.961 296.741C380.71 296.661 380.572 296.393 380.652 296.142C380.73 295.893 380.998 295.754 381.25 295.833L384.303 296.804C384.554 296.885 384.692 297.152 384.612 297.403C384.572 297.529 384.485 297.627 384.375 297.683Z" fill="#0E1004"/>
<path d="M44.5928 25.4531C44.3347 25.4531 44.1226 25.2462 44.1169 24.9876L44.045 21.7343C44.0393 21.4729 44.2476 21.2552 44.5108 21.2497C44.7651 21.2443 44.9919 21.4512 44.9973 21.7152L45.0692 24.9658C45.0752 25.2299 44.8667 25.4477 44.6037 25.4531C44.6001 25.4531 44.5963 25.4531 44.5928 25.4531Z" fill="#0E1004"/>
<path d="M44.837 36.8298C44.5789 36.8298 44.3666 36.6256 44.3611 36.3656L44.2892 33.1135C44.2833 32.8509 44.4918 32.6334 44.755 32.6254C45.0194 32.6228 45.2356 32.8297 45.2415 33.0923L45.3136 36.3444C45.3192 36.607 45.1107 36.8245 44.8478 36.8298C44.8441 36.8298 44.8404 36.8298 44.837 36.8298Z" fill="#0E1004"/>
<path d="M37.4746 29.5679C37.2131 29.5679 36.9999 29.3563 36.9981 29.0966C36.9964 28.8316 37.208 28.6174 37.4712 28.6147L40.6755 28.5933C40.9325 28.5853 41.1534 28.8021 41.1552 29.0645C41.1574 29.3296 40.9456 29.5438 40.6827 29.5438L37.4781 29.5679C37.477 29.5679 37.4757 29.5679 37.4746 29.5679Z" fill="#0E1004"/>
<path d="M48.6798 29.4893C48.4182 29.4893 48.2053 29.2777 48.2031 29.0153C48.2015 28.7528 48.4131 28.536 48.676 28.536L51.8809 28.5118C51.8819 28.5118 51.8833 28.5118 51.8844 28.5118C52.1457 28.5118 52.3589 28.7234 52.3607 28.9858C52.3624 29.2483 52.1508 29.4625 51.8878 29.4651L48.6833 29.4893C48.6819 29.4893 48.6809 29.4893 48.6798 29.4893Z" fill="#0E1004"/>
<path d="M401.911 263.413C400.314 264.224 399.675 266.183 400.486 267.779C401.297 269.376 403.257 270.014 404.853 269.202C406.45 268.391 407.087 266.433 406.276 264.836C405.465 263.24 403.507 262.601 401.911 263.413ZM405.285 270.052C403.222 271.101 400.687 270.275 399.638 268.211C398.588 266.146 399.415 263.612 401.478 262.563C403.544 261.513 406.077 262.34 407.126 264.404C408.176 266.468 407.351 269.002 405.285 270.052Z" fill="#0E1004"/>
<path d="M407.929 126.789C406.138 126.789 404.682 128.247 404.682 130.039C404.682 131.828 406.138 133.287 407.929 133.287C409.718 133.287 411.177 131.828 411.177 130.039C411.177 128.247 409.718 126.789 407.929 126.789ZM407.929 134.239C405.612 134.239 403.727 132.354 403.727 130.039C403.727 127.722 405.612 125.837 407.929 125.837C410.244 125.837 412.129 127.722 412.129 130.039C412.129 132.354 410.244 134.239 407.929 134.239Z" fill="#0E1004"/>
<path d="M404.156 103.657C404.156 101.915 405.568 100.506 407.307 100.506C409.048 100.506 410.46 101.915 410.46 103.657C410.46 105.395 409.048 106.807 407.307 106.807C405.568 106.807 404.156 105.395 404.156 103.657Z" fill="#C9FA4C"/>
<rect x="210.413" y="174.986" width="10.1992" height="43.711" rx="5.09962" transform="rotate(-60 210.413 174.986)" stroke="black" stroke-width="0.971356"/>
<circle cx="198.81" cy="161.307" r="28.8169" transform="rotate(-60 198.81 161.307)" fill="black"/>
<circle cx="195.365" cy="159.504" r="28.8169" transform="rotate(-60 195.365 159.504)" fill="white"/>
<path d="M172.465 146.361C170.42 149.903 169.183 153.885 168.869 158.079C167.726 173.326 179.269 186.692 194.599 187.872C202.051 188.444 209.268 186.088 214.918 181.235C220.524 176.42 223.915 169.716 224.467 162.359C225.607 147.11 214.064 133.745 198.734 132.565C191.282 131.993 184.066 134.349 178.415 139.202C176.006 141.272 174.006 143.692 172.465 146.361ZM221.698 174.553C220.103 177.316 218.035 179.819 215.542 181.961C209.696 186.979 202.234 189.417 194.526 188.824C178.673 187.605 166.736 173.781 167.915 158.007C168.485 150.395 171.994 143.458 177.794 138.477C183.637 133.458 191.1 131.02 198.808 131.613C214.663 132.833 226.6 146.657 225.418 162.43C225.093 166.769 223.813 170.89 221.698 174.553Z" fill="black"/>
<path d="M208.562 140.203C197.489 133.81 183.33 137.604 176.938 148.677" stroke="black" stroke-width="1.13325" stroke-linecap="round"/>
</svg>
