<svg width="40" height="40" viewBox="0 0 40 40" fill="none" xmlns="http://www.w3.org/2000/svg">
<path fillRule="evenodd" clipRule="evenodd" d="M28.8388 11.1611C28.0964 10.4188 26.9008 10.4108 26.1683 11.1433L19.9813 17.3303L13.8308 11.1798C13.0885 10.4375 11.8929 10.4295 11.1604 11.162C10.4279 11.8945 10.4359 13.0901 11.1782 13.8324L17.3287 19.9829L11.1433 26.1683C10.4108 26.9008 10.4188 28.0964 11.1611 28.8388C11.9035 29.5811 13.0991 29.5891 13.8316 28.8566L20.017 22.6712L26.1676 28.8218C26.9099 29.5641 28.1055 29.5721 28.838 28.8396C29.5705 28.1071 29.5625 26.9115 28.8202 26.1692L22.6696 20.0186L28.8566 13.8316C29.5891 13.0991 29.5811 11.9035 28.8388 11.1611Z" fill="#AFACAB"/>
</svg>
