<svg width="65" height="45" viewBox="0 0 65 45" fill="none" xmlns="http://www.w3.org/2000/svg">
<g clip-path="url(#clip0_3194_649)">
<path d="M39.6288 29.639C34.0642 34.7839 28.2102 38.5113 23.2656 40.3934C20.7914 41.3352 18.5795 41.8017 16.7642 41.7759C14.9511 41.7502 13.5995 41.2376 12.727 40.2939C11.8545 39.3503 11.4493 37.9626 11.5656 36.1531C11.682 34.3414 12.3202 32.1727 13.4527 29.7799C15.7161 24.9978 19.8903 19.4535 25.455 14.3087C31.0196 9.16379 36.8736 5.43634 41.8182 3.55424C44.2924 2.61246 46.5043 2.14599 48.3196 2.17174C50.1327 2.19745 51.4843 2.71008 52.3568 3.65373C53.2292 4.59737 53.6345 5.98503 53.5182 7.79454C53.4018 9.60632 52.7636 11.7749 51.6311 14.1678C49.3677 18.9499 45.1935 24.4942 39.6288 29.639Z" stroke="#C9FA4C" stroke-width="1.39909"/>
<mask id="path-2-outside-1_3194_649" maskUnits="userSpaceOnUse" x="-1" y="13.5867" width="67" height="17" fill="black">
<rect fill="white" x="-1" y="13.5867" width="67" height="17"/>
<path d="M2.43443 26.1031C1.74191 26.1031 1.1939 25.9614 0.790391 25.6778C0.38688 25.3888 0.127869 24.958 0.0133595 24.3855C-0.0248105 24.1565 0.0188123 23.9765 0.144228 23.8457C0.275096 23.7148 0.45504 23.6494 0.68406 23.6494C0.907627 23.6494 1.06849 23.7066 1.16664 23.8211C1.27024 23.9302 1.35476 24.0965 1.42019 24.3201C1.48563 24.4836 1.59469 24.5927 1.74737 24.6472C1.9055 24.7018 2.13452 24.729 2.43443 24.729H5.11723C5.54255 24.729 5.82882 24.6609 5.97605 24.5245C6.12328 24.3828 6.19689 24.091 6.19689 23.6494C6.19689 23.2131 6.12328 22.9241 5.97605 22.7823C5.82882 22.6406 5.54255 22.5697 5.11723 22.5697H2.4835C1.69829 22.5697 1.10666 22.3707 0.708598 21.9726C0.31054 21.5745 0.111511 20.9829 0.111511 20.1977C0.111511 19.3961 0.305087 18.799 0.692239 18.4064C1.08484 18.0084 1.68193 17.8094 2.4835 17.8094H5.03543C6.31685 17.8094 7.0748 18.3492 7.30927 19.4288C7.3529 19.6579 7.30927 19.8351 7.1784 19.9605C7.04754 20.0859 6.86759 20.1486 6.63857 20.1486C6.42591 20.1486 6.26778 20.0941 6.16418 19.985C6.06057 19.8705 5.97878 19.7124 5.9188 19.5106C5.85336 19.3798 5.75248 19.2925 5.61616 19.2489C5.48529 19.2053 5.29172 19.1835 5.03543 19.1835H2.4835C2.06908 19.1835 1.79917 19.2462 1.67375 19.3716C1.54834 19.497 1.48563 19.7724 1.48563 20.1977C1.48563 20.5903 1.55106 20.8548 1.68193 20.9911C1.81825 21.1274 2.08544 21.1956 2.4835 21.1956H5.11723C5.93515 21.1956 6.5486 21.4001 6.95756 21.809C7.36653 22.218 7.57101 22.8314 7.57101 23.6494C7.57101 24.4727 7.36653 25.0889 6.95756 25.4979C6.5486 25.9014 5.93515 26.1031 5.11723 26.1031H2.43443Z"/>
<path d="M13.3019 26.1031C12.2168 26.1031 11.4097 25.8414 10.8808 25.3179C10.3573 24.7945 10.0956 23.9929 10.0956 22.9132V21.0156C10.0956 19.9196 10.3573 19.1126 10.8808 18.5946C11.4097 18.0711 12.2168 17.8094 13.3019 17.8094H14.6433C15.7338 17.8094 16.5409 18.0711 17.0643 18.5946C17.5878 19.118 17.8495 19.9251 17.8495 21.0156V22.8969C17.8495 23.982 17.5878 24.789 17.0643 25.3179C16.5409 25.8414 15.7338 26.1031 14.6433 26.1031H13.3019ZM11.4697 22.9132C11.4697 23.6166 11.5979 24.0965 11.8541 24.3528C12.1104 24.6036 12.593 24.729 13.3019 24.729H14.6433C15.3576 24.729 15.8402 24.6009 16.091 24.3446C16.3473 24.0883 16.4754 23.6057 16.4754 22.8969V21.0156C16.4754 20.3013 16.3473 19.8187 16.091 19.5679C15.8402 19.3116 15.3576 19.1835 14.6433 19.1835H13.3019C12.8275 19.1835 12.4567 19.238 12.1895 19.3471C11.9278 19.4507 11.7424 19.6361 11.6333 19.9032C11.5242 20.165 11.4697 20.5358 11.4697 21.0156V22.9132Z"/>
<path d="M21.8539 26.1031C21.3959 26.1031 21.1669 25.8741 21.1669 25.4161V19.1835H20.5616C20.1036 19.1835 19.8746 18.9544 19.8746 18.4964C19.8746 18.0384 20.1036 17.8094 20.5616 17.8094H21.1669V17.7439C21.1669 16.6697 21.4259 15.8763 21.9439 15.3637C22.4619 14.8457 23.2553 14.5867 24.3241 14.5867C24.7167 14.5867 24.913 14.8157 24.913 15.2738C24.913 15.7318 24.7167 15.9608 24.3241 15.9608C23.637 15.9608 23.1681 16.0835 22.9172 16.3289C22.6664 16.5743 22.541 17.046 22.541 17.7439V17.8094H24.2259C24.684 17.8094 24.913 18.0384 24.913 18.4964C24.913 18.9544 24.684 19.1835 24.2259 19.1835H22.541V25.4161C22.541 25.8741 22.312 26.1031 21.8539 26.1031Z"/>
<path d="M30.667 26.1031C29.5873 26.1031 28.7912 25.8469 28.2786 25.3343C27.7661 24.8217 27.5098 24.0311 27.5098 22.9623V19.1835H23.3926C22.9345 19.1835 22.7055 18.9544 22.7055 18.4964C22.7055 18.0384 22.9345 17.8094 23.3926 17.8094H27.5098V16.6152C27.5098 16.1571 27.7388 15.9281 28.1968 15.9281C28.6549 15.9281 28.8839 16.1571 28.8839 16.6152V17.8094H30.7651C31.2232 17.8094 31.4522 18.0384 31.4522 18.4964C31.4522 18.9544 31.2232 19.1835 30.7651 19.1835H28.8839V22.9623C28.8839 23.6548 29.0093 24.1238 29.2601 24.3691C29.511 24.6091 29.9799 24.729 30.667 24.729C30.8796 24.729 31.046 24.7835 31.1659 24.8926C31.2913 25.0017 31.354 25.1762 31.354 25.4161C31.354 25.8741 31.125 26.1031 30.667 26.1031Z"/>
<path d="M34.7066 29.3748C34.2486 29.3748 34.0196 29.1458 34.0196 28.6878V18.4964C34.0196 18.0384 34.2486 17.8094 34.7066 17.8094C35.1647 17.8094 35.3937 18.0384 35.3937 18.4964V18.7009C35.6882 18.4064 36.0508 18.1856 36.4816 18.0384C36.9178 17.8857 37.4058 17.8094 37.9456 17.8094H38.5673C39.6578 17.8094 40.4649 18.0711 40.9883 18.5946C41.5118 19.118 41.7735 19.9251 41.7735 21.0156V22.8969C41.7735 23.982 41.5118 24.789 40.9883 25.3179C40.4649 25.8414 39.6578 26.1031 38.5673 26.1031H35.3937V28.6878C35.3937 29.1458 35.1647 29.3748 34.7066 29.3748ZM35.3937 24.729H38.5673C39.2816 24.729 39.7642 24.6009 40.015 24.3446C40.2713 24.0883 40.3994 23.6057 40.3994 22.8969V21.0156C40.3994 20.3013 40.2713 19.8187 40.015 19.5679C39.7642 19.3116 39.2816 19.1835 38.5673 19.1835H37.9456C37.264 19.1835 36.6751 19.2653 36.1789 19.4288C35.6827 19.5924 35.421 19.8514 35.3937 20.2059V24.729Z"/>
<path d="M47.257 26.1031C46.4227 26.1031 45.8011 25.8987 45.3921 25.4897C44.9886 25.0753 44.7868 24.4509 44.7868 23.6166V15.2738C44.7868 14.8157 45.0159 14.5867 45.4739 14.5867C45.9319 14.5867 46.161 14.8157 46.161 15.2738V23.6166C46.161 24.0583 46.2318 24.3555 46.3736 24.5082C46.5208 24.6554 46.8153 24.729 47.257 24.729C47.7259 24.729 47.9604 24.958 47.9604 25.4161C47.9768 25.8741 47.7423 26.1031 47.257 26.1031Z"/>
<path d="M52.6265 26.1031C51.7105 26.1031 51.0289 25.8796 50.5817 25.4324C50.1346 24.9853 49.911 24.3037 49.911 23.3876C49.911 22.4715 50.1319 21.7899 50.5735 21.3428C51.0207 20.8957 51.705 20.6721 52.6265 20.6721H56.0864C56.0537 20.0995 55.9037 19.7097 55.6365 19.5025C55.3693 19.2898 54.9113 19.1835 54.2624 19.1835H53.3136C52.7683 19.1835 52.3621 19.2216 52.0949 19.298C51.8277 19.3689 51.6396 19.4997 51.5305 19.6906C51.4324 19.9196 51.3315 20.0777 51.2279 20.165C51.1243 20.2522 50.9689 20.2958 50.7617 20.2958C50.5327 20.2958 50.3527 20.2331 50.2218 20.1077C50.091 19.9769 50.0528 19.8051 50.1073 19.5924C50.2709 18.9763 50.6117 18.5264 51.1297 18.2429C51.6532 17.9539 52.3812 17.8094 53.3136 17.8094H54.2624C55.353 17.8094 56.16 18.0711 56.6835 18.5946C57.2069 19.118 57.4687 19.9251 57.4687 21.0156V25.4161C57.4687 25.8741 57.2397 26.1031 56.7816 26.1031C56.3236 26.1031 56.0946 25.8741 56.0946 25.4161V25.048C55.5111 25.7514 54.6605 26.1031 53.5426 26.1031H52.6265ZM52.6265 24.729H53.5426C53.9461 24.729 54.3251 24.6936 54.6795 24.6227C55.034 24.5463 55.3366 24.41 55.5874 24.2137C55.8437 24.0174 56.0128 23.7366 56.0946 23.3713V22.0462H52.6265C52.0867 22.0462 51.7268 22.1362 51.5469 22.3161C51.3724 22.4961 51.2851 22.8532 51.2851 23.3876C51.2851 23.9274 51.3724 24.2873 51.5469 24.4673C51.7268 24.6418 52.0867 24.729 52.6265 24.729Z"/>
<path d="M64.2148 26.1031C63.1351 26.1031 62.339 25.8469 61.8264 25.3343C61.3139 24.8217 61.0576 24.0311 61.0576 22.9623V19.1835H60.256C59.798 19.1835 59.569 18.9544 59.569 18.4964C59.569 18.0384 59.798 17.8094 60.256 17.8094H61.0576V16.6152C61.0576 16.1571 61.2866 15.9281 61.7447 15.9281C62.2027 15.9281 62.4317 16.1571 62.4317 16.6152V17.8094H64.3129C64.771 17.8094 65 18.0384 65 18.4964C65 18.9544 64.771 19.1835 64.3129 19.1835H62.4317V22.9623C62.4317 23.6548 62.5571 24.1238 62.808 24.3691C63.0588 24.6091 63.5277 24.729 64.2148 24.729C64.4275 24.729 64.5938 24.7835 64.7137 24.8926C64.8391 25.0017 64.9019 25.1762 64.9019 25.4161C64.9019 25.8741 64.6728 26.1031 64.2148 26.1031Z"/>
</mask>
<path d="M2.43443 26.1031C1.74191 26.1031 1.1939 25.9614 0.790391 25.6778C0.38688 25.3888 0.127869 24.958 0.0133595 24.3855C-0.0248105 24.1565 0.0188123 23.9765 0.144228 23.8457C0.275096 23.7148 0.45504 23.6494 0.68406 23.6494C0.907627 23.6494 1.06849 23.7066 1.16664 23.8211C1.27024 23.9302 1.35476 24.0965 1.42019 24.3201C1.48563 24.4836 1.59469 24.5927 1.74737 24.6472C1.9055 24.7018 2.13452 24.729 2.43443 24.729H5.11723C5.54255 24.729 5.82882 24.6609 5.97605 24.5245C6.12328 24.3828 6.19689 24.091 6.19689 23.6494C6.19689 23.2131 6.12328 22.9241 5.97605 22.7823C5.82882 22.6406 5.54255 22.5697 5.11723 22.5697H2.4835C1.69829 22.5697 1.10666 22.3707 0.708598 21.9726C0.31054 21.5745 0.111511 20.9829 0.111511 20.1977C0.111511 19.3961 0.305087 18.799 0.692239 18.4064C1.08484 18.0084 1.68193 17.8094 2.4835 17.8094H5.03543C6.31685 17.8094 7.0748 18.3492 7.30927 19.4288C7.3529 19.6579 7.30927 19.8351 7.1784 19.9605C7.04754 20.0859 6.86759 20.1486 6.63857 20.1486C6.42591 20.1486 6.26778 20.0941 6.16418 19.985C6.06057 19.8705 5.97878 19.7124 5.9188 19.5106C5.85336 19.3798 5.75248 19.2925 5.61616 19.2489C5.48529 19.2053 5.29172 19.1835 5.03543 19.1835H2.4835C2.06908 19.1835 1.79917 19.2462 1.67375 19.3716C1.54834 19.497 1.48563 19.7724 1.48563 20.1977C1.48563 20.5903 1.55106 20.8548 1.68193 20.9911C1.81825 21.1274 2.08544 21.1956 2.4835 21.1956H5.11723C5.93515 21.1956 6.5486 21.4001 6.95756 21.809C7.36653 22.218 7.57101 22.8314 7.57101 23.6494C7.57101 24.4727 7.36653 25.0889 6.95756 25.4979C6.5486 25.9014 5.93515 26.1031 5.11723 26.1031H2.43443Z" fill="black"/>
<path d="M13.3019 26.1031C12.2168 26.1031 11.4097 25.8414 10.8808 25.3179C10.3573 24.7945 10.0956 23.9929 10.0956 22.9132V21.0156C10.0956 19.9196 10.3573 19.1126 10.8808 18.5946C11.4097 18.0711 12.2168 17.8094 13.3019 17.8094H14.6433C15.7338 17.8094 16.5409 18.0711 17.0643 18.5946C17.5878 19.118 17.8495 19.9251 17.8495 21.0156V22.8969C17.8495 23.982 17.5878 24.789 17.0643 25.3179C16.5409 25.8414 15.7338 26.1031 14.6433 26.1031H13.3019ZM11.4697 22.9132C11.4697 23.6166 11.5979 24.0965 11.8541 24.3528C12.1104 24.6036 12.593 24.729 13.3019 24.729H14.6433C15.3576 24.729 15.8402 24.6009 16.091 24.3446C16.3473 24.0883 16.4754 23.6057 16.4754 22.8969V21.0156C16.4754 20.3013 16.3473 19.8187 16.091 19.5679C15.8402 19.3116 15.3576 19.1835 14.6433 19.1835H13.3019C12.8275 19.1835 12.4567 19.238 12.1895 19.3471C11.9278 19.4507 11.7424 19.6361 11.6333 19.9032C11.5242 20.165 11.4697 20.5358 11.4697 21.0156V22.9132Z" fill="black"/>
<path d="M21.8539 26.1031C21.3959 26.1031 21.1669 25.8741 21.1669 25.4161V19.1835H20.5616C20.1036 19.1835 19.8746 18.9544 19.8746 18.4964C19.8746 18.0384 20.1036 17.8094 20.5616 17.8094H21.1669V17.7439C21.1669 16.6697 21.4259 15.8763 21.9439 15.3637C22.4619 14.8457 23.2553 14.5867 24.3241 14.5867C24.7167 14.5867 24.913 14.8157 24.913 15.2738C24.913 15.7318 24.7167 15.9608 24.3241 15.9608C23.637 15.9608 23.1681 16.0835 22.9172 16.3289C22.6664 16.5743 22.541 17.046 22.541 17.7439V17.8094H24.2259C24.684 17.8094 24.913 18.0384 24.913 18.4964C24.913 18.9544 24.684 19.1835 24.2259 19.1835H22.541V25.4161C22.541 25.8741 22.312 26.1031 21.8539 26.1031Z" fill="black"/>
<path d="M30.667 26.1031C29.5873 26.1031 28.7912 25.8469 28.2786 25.3343C27.7661 24.8217 27.5098 24.0311 27.5098 22.9623V19.1835H23.3926C22.9345 19.1835 22.7055 18.9544 22.7055 18.4964C22.7055 18.0384 22.9345 17.8094 23.3926 17.8094H27.5098V16.6152C27.5098 16.1571 27.7388 15.9281 28.1968 15.9281C28.6549 15.9281 28.8839 16.1571 28.8839 16.6152V17.8094H30.7651C31.2232 17.8094 31.4522 18.0384 31.4522 18.4964C31.4522 18.9544 31.2232 19.1835 30.7651 19.1835H28.8839V22.9623C28.8839 23.6548 29.0093 24.1238 29.2601 24.3691C29.511 24.6091 29.9799 24.729 30.667 24.729C30.8796 24.729 31.046 24.7835 31.1659 24.8926C31.2913 25.0017 31.354 25.1762 31.354 25.4161C31.354 25.8741 31.125 26.1031 30.667 26.1031Z" fill="black"/>
<path d="M34.7066 29.3748C34.2486 29.3748 34.0196 29.1458 34.0196 28.6878V18.4964C34.0196 18.0384 34.2486 17.8094 34.7066 17.8094C35.1647 17.8094 35.3937 18.0384 35.3937 18.4964V18.7009C35.6882 18.4064 36.0508 18.1856 36.4816 18.0384C36.9178 17.8857 37.4058 17.8094 37.9456 17.8094H38.5673C39.6578 17.8094 40.4649 18.0711 40.9883 18.5946C41.5118 19.118 41.7735 19.9251 41.7735 21.0156V22.8969C41.7735 23.982 41.5118 24.789 40.9883 25.3179C40.4649 25.8414 39.6578 26.1031 38.5673 26.1031H35.3937V28.6878C35.3937 29.1458 35.1647 29.3748 34.7066 29.3748ZM35.3937 24.729H38.5673C39.2816 24.729 39.7642 24.6009 40.015 24.3446C40.2713 24.0883 40.3994 23.6057 40.3994 22.8969V21.0156C40.3994 20.3013 40.2713 19.8187 40.015 19.5679C39.7642 19.3116 39.2816 19.1835 38.5673 19.1835H37.9456C37.264 19.1835 36.6751 19.2653 36.1789 19.4288C35.6827 19.5924 35.421 19.8514 35.3937 20.2059V24.729Z" fill="black"/>
<path d="M47.257 26.1031C46.4227 26.1031 45.8011 25.8987 45.3921 25.4897C44.9886 25.0753 44.7868 24.4509 44.7868 23.6166V15.2738C44.7868 14.8157 45.0159 14.5867 45.4739 14.5867C45.9319 14.5867 46.161 14.8157 46.161 15.2738V23.6166C46.161 24.0583 46.2318 24.3555 46.3736 24.5082C46.5208 24.6554 46.8153 24.729 47.257 24.729C47.7259 24.729 47.9604 24.958 47.9604 25.4161C47.9768 25.8741 47.7423 26.1031 47.257 26.1031Z" fill="black"/>
<path d="M52.6265 26.1031C51.7105 26.1031 51.0289 25.8796 50.5817 25.4324C50.1346 24.9853 49.911 24.3037 49.911 23.3876C49.911 22.4715 50.1319 21.7899 50.5735 21.3428C51.0207 20.8957 51.705 20.6721 52.6265 20.6721H56.0864C56.0537 20.0995 55.9037 19.7097 55.6365 19.5025C55.3693 19.2898 54.9113 19.1835 54.2624 19.1835H53.3136C52.7683 19.1835 52.3621 19.2216 52.0949 19.298C51.8277 19.3689 51.6396 19.4997 51.5305 19.6906C51.4324 19.9196 51.3315 20.0777 51.2279 20.165C51.1243 20.2522 50.9689 20.2958 50.7617 20.2958C50.5327 20.2958 50.3527 20.2331 50.2218 20.1077C50.091 19.9769 50.0528 19.8051 50.1073 19.5924C50.2709 18.9763 50.6117 18.5264 51.1297 18.2429C51.6532 17.9539 52.3812 17.8094 53.3136 17.8094H54.2624C55.353 17.8094 56.16 18.0711 56.6835 18.5946C57.2069 19.118 57.4687 19.9251 57.4687 21.0156V25.4161C57.4687 25.8741 57.2397 26.1031 56.7816 26.1031C56.3236 26.1031 56.0946 25.8741 56.0946 25.4161V25.048C55.5111 25.7514 54.6605 26.1031 53.5426 26.1031H52.6265ZM52.6265 24.729H53.5426C53.9461 24.729 54.3251 24.6936 54.6795 24.6227C55.034 24.5463 55.3366 24.41 55.5874 24.2137C55.8437 24.0174 56.0128 23.7366 56.0946 23.3713V22.0462H52.6265C52.0867 22.0462 51.7268 22.1362 51.5469 22.3161C51.3724 22.4961 51.2851 22.8532 51.2851 23.3876C51.2851 23.9274 51.3724 24.2873 51.5469 24.4673C51.7268 24.6418 52.0867 24.729 52.6265 24.729Z" fill="black"/>
<path d="M64.2148 26.1031C63.1351 26.1031 62.339 25.8469 61.8264 25.3343C61.3139 24.8217 61.0576 24.0311 61.0576 22.9623V19.1835H60.256C59.798 19.1835 59.569 18.9544 59.569 18.4964C59.569 18.0384 59.798 17.8094 60.256 17.8094H61.0576V16.6152C61.0576 16.1571 61.2866 15.9281 61.7447 15.9281C62.2027 15.9281 62.4317 16.1571 62.4317 16.6152V17.8094H64.3129C64.771 17.8094 65 18.0384 65 18.4964C65 18.9544 64.771 19.1835 64.3129 19.1835H62.4317V22.9623C62.4317 23.6548 62.5571 24.1238 62.808 24.3691C63.0588 24.6091 63.5277 24.729 64.2148 24.729C64.4275 24.729 64.5938 24.7835 64.7137 24.8926C64.8391 25.0017 64.9019 25.1762 64.9019 25.4161C64.9019 25.8741 64.6728 26.1031 64.2148 26.1031Z" fill="black"/>
<path d="M2.43443 26.1031C1.74191 26.1031 1.1939 25.9614 0.790391 25.6778C0.38688 25.3888 0.127869 24.958 0.0133595 24.3855C-0.0248105 24.1565 0.0188123 23.9765 0.144228 23.8457C0.275096 23.7148 0.45504 23.6494 0.68406 23.6494C0.907627 23.6494 1.06849 23.7066 1.16664 23.8211C1.27024 23.9302 1.35476 24.0965 1.42019 24.3201C1.48563 24.4836 1.59469 24.5927 1.74737 24.6472C1.9055 24.7018 2.13452 24.729 2.43443 24.729H5.11723C5.54255 24.729 5.82882 24.6609 5.97605 24.5245C6.12328 24.3828 6.19689 24.091 6.19689 23.6494C6.19689 23.2131 6.12328 22.9241 5.97605 22.7823C5.82882 22.6406 5.54255 22.5697 5.11723 22.5697H2.4835C1.69829 22.5697 1.10666 22.3707 0.708598 21.9726C0.31054 21.5745 0.111511 20.9829 0.111511 20.1977C0.111511 19.3961 0.305087 18.799 0.692239 18.4064C1.08484 18.0084 1.68193 17.8094 2.4835 17.8094H5.03543C6.31685 17.8094 7.0748 18.3492 7.30927 19.4288C7.3529 19.6579 7.30927 19.8351 7.1784 19.9605C7.04754 20.0859 6.86759 20.1486 6.63857 20.1486C6.42591 20.1486 6.26778 20.0941 6.16418 19.985C6.06057 19.8705 5.97878 19.7124 5.9188 19.5106C5.85336 19.3798 5.75248 19.2925 5.61616 19.2489C5.48529 19.2053 5.29172 19.1835 5.03543 19.1835H2.4835C2.06908 19.1835 1.79917 19.2462 1.67375 19.3716C1.54834 19.497 1.48563 19.7724 1.48563 20.1977C1.48563 20.5903 1.55106 20.8548 1.68193 20.9911C1.81825 21.1274 2.08544 21.1956 2.4835 21.1956H5.11723C5.93515 21.1956 6.5486 21.4001 6.95756 21.809C7.36653 22.218 7.57101 22.8314 7.57101 23.6494C7.57101 24.4727 7.36653 25.0889 6.95756 25.4979C6.5486 25.9014 5.93515 26.1031 5.11723 26.1031H2.43443Z" stroke="black" stroke-width="0.6" mask="url(#path-2-outside-1_3194_649)"/>
<path d="M13.3019 26.1031C12.2168 26.1031 11.4097 25.8414 10.8808 25.3179C10.3573 24.7945 10.0956 23.9929 10.0956 22.9132V21.0156C10.0956 19.9196 10.3573 19.1126 10.8808 18.5946C11.4097 18.0711 12.2168 17.8094 13.3019 17.8094H14.6433C15.7338 17.8094 16.5409 18.0711 17.0643 18.5946C17.5878 19.118 17.8495 19.9251 17.8495 21.0156V22.8969C17.8495 23.982 17.5878 24.789 17.0643 25.3179C16.5409 25.8414 15.7338 26.1031 14.6433 26.1031H13.3019ZM11.4697 22.9132C11.4697 23.6166 11.5979 24.0965 11.8541 24.3528C12.1104 24.6036 12.593 24.729 13.3019 24.729H14.6433C15.3576 24.729 15.8402 24.6009 16.091 24.3446C16.3473 24.0883 16.4754 23.6057 16.4754 22.8969V21.0156C16.4754 20.3013 16.3473 19.8187 16.091 19.5679C15.8402 19.3116 15.3576 19.1835 14.6433 19.1835H13.3019C12.8275 19.1835 12.4567 19.238 12.1895 19.3471C11.9278 19.4507 11.7424 19.6361 11.6333 19.9032C11.5242 20.165 11.4697 20.5358 11.4697 21.0156V22.9132Z" stroke="black" stroke-width="0.6" mask="url(#path-2-outside-1_3194_649)"/>
<path d="M21.8539 26.1031C21.3959 26.1031 21.1669 25.8741 21.1669 25.4161V19.1835H20.5616C20.1036 19.1835 19.8746 18.9544 19.8746 18.4964C19.8746 18.0384 20.1036 17.8094 20.5616 17.8094H21.1669V17.7439C21.1669 16.6697 21.4259 15.8763 21.9439 15.3637C22.4619 14.8457 23.2553 14.5867 24.3241 14.5867C24.7167 14.5867 24.913 14.8157 24.913 15.2738C24.913 15.7318 24.7167 15.9608 24.3241 15.9608C23.637 15.9608 23.1681 16.0835 22.9172 16.3289C22.6664 16.5743 22.541 17.046 22.541 17.7439V17.8094H24.2259C24.684 17.8094 24.913 18.0384 24.913 18.4964C24.913 18.9544 24.684 19.1835 24.2259 19.1835H22.541V25.4161C22.541 25.8741 22.312 26.1031 21.8539 26.1031Z" stroke="black" stroke-width="0.6" mask="url(#path-2-outside-1_3194_649)"/>
<path d="M30.667 26.1031C29.5873 26.1031 28.7912 25.8469 28.2786 25.3343C27.7661 24.8217 27.5098 24.0311 27.5098 22.9623V19.1835H23.3926C22.9345 19.1835 22.7055 18.9544 22.7055 18.4964C22.7055 18.0384 22.9345 17.8094 23.3926 17.8094H27.5098V16.6152C27.5098 16.1571 27.7388 15.9281 28.1968 15.9281C28.6549 15.9281 28.8839 16.1571 28.8839 16.6152V17.8094H30.7651C31.2232 17.8094 31.4522 18.0384 31.4522 18.4964C31.4522 18.9544 31.2232 19.1835 30.7651 19.1835H28.8839V22.9623C28.8839 23.6548 29.0093 24.1238 29.2601 24.3691C29.511 24.6091 29.9799 24.729 30.667 24.729C30.8796 24.729 31.046 24.7835 31.1659 24.8926C31.2913 25.0017 31.354 25.1762 31.354 25.4161C31.354 25.8741 31.125 26.1031 30.667 26.1031Z" stroke="black" stroke-width="0.6" mask="url(#path-2-outside-1_3194_649)"/>
<path d="M34.7066 29.3748C34.2486 29.3748 34.0196 29.1458 34.0196 28.6878V18.4964C34.0196 18.0384 34.2486 17.8094 34.7066 17.8094C35.1647 17.8094 35.3937 18.0384 35.3937 18.4964V18.7009C35.6882 18.4064 36.0508 18.1856 36.4816 18.0384C36.9178 17.8857 37.4058 17.8094 37.9456 17.8094H38.5673C39.6578 17.8094 40.4649 18.0711 40.9883 18.5946C41.5118 19.118 41.7735 19.9251 41.7735 21.0156V22.8969C41.7735 23.982 41.5118 24.789 40.9883 25.3179C40.4649 25.8414 39.6578 26.1031 38.5673 26.1031H35.3937V28.6878C35.3937 29.1458 35.1647 29.3748 34.7066 29.3748ZM35.3937 24.729H38.5673C39.2816 24.729 39.7642 24.6009 40.015 24.3446C40.2713 24.0883 40.3994 23.6057 40.3994 22.8969V21.0156C40.3994 20.3013 40.2713 19.8187 40.015 19.5679C39.7642 19.3116 39.2816 19.1835 38.5673 19.1835H37.9456C37.264 19.1835 36.6751 19.2653 36.1789 19.4288C35.6827 19.5924 35.421 19.8514 35.3937 20.2059V24.729Z" stroke="black" stroke-width="0.6" mask="url(#path-2-outside-1_3194_649)"/>
<path d="M47.257 26.1031C46.4227 26.1031 45.8011 25.8987 45.3921 25.4897C44.9886 25.0753 44.7868 24.4509 44.7868 23.6166V15.2738C44.7868 14.8157 45.0159 14.5867 45.4739 14.5867C45.9319 14.5867 46.161 14.8157 46.161 15.2738V23.6166C46.161 24.0583 46.2318 24.3555 46.3736 24.5082C46.5208 24.6554 46.8153 24.729 47.257 24.729C47.7259 24.729 47.9604 24.958 47.9604 25.4161C47.9768 25.8741 47.7423 26.1031 47.257 26.1031Z" stroke="black" stroke-width="0.6" mask="url(#path-2-outside-1_3194_649)"/>
<path d="M52.6265 26.1031C51.7105 26.1031 51.0289 25.8796 50.5817 25.4324C50.1346 24.9853 49.911 24.3037 49.911 23.3876C49.911 22.4715 50.1319 21.7899 50.5735 21.3428C51.0207 20.8957 51.705 20.6721 52.6265 20.6721H56.0864C56.0537 20.0995 55.9037 19.7097 55.6365 19.5025C55.3693 19.2898 54.9113 19.1835 54.2624 19.1835H53.3136C52.7683 19.1835 52.3621 19.2216 52.0949 19.298C51.8277 19.3689 51.6396 19.4997 51.5305 19.6906C51.4324 19.9196 51.3315 20.0777 51.2279 20.165C51.1243 20.2522 50.9689 20.2958 50.7617 20.2958C50.5327 20.2958 50.3527 20.2331 50.2218 20.1077C50.091 19.9769 50.0528 19.8051 50.1073 19.5924C50.2709 18.9763 50.6117 18.5264 51.1297 18.2429C51.6532 17.9539 52.3812 17.8094 53.3136 17.8094H54.2624C55.353 17.8094 56.16 18.0711 56.6835 18.5946C57.2069 19.118 57.4687 19.9251 57.4687 21.0156V25.4161C57.4687 25.8741 57.2397 26.1031 56.7816 26.1031C56.3236 26.1031 56.0946 25.8741 56.0946 25.4161V25.048C55.5111 25.7514 54.6605 26.1031 53.5426 26.1031H52.6265ZM52.6265 24.729H53.5426C53.9461 24.729 54.3251 24.6936 54.6795 24.6227C55.034 24.5463 55.3366 24.41 55.5874 24.2137C55.8437 24.0174 56.0128 23.7366 56.0946 23.3713V22.0462H52.6265C52.0867 22.0462 51.7268 22.1362 51.5469 22.3161C51.3724 22.4961 51.2851 22.8532 51.2851 23.3876C51.2851 23.9274 51.3724 24.2873 51.5469 24.4673C51.7268 24.6418 52.0867 24.729 52.6265 24.729Z" stroke="black" stroke-width="0.6" mask="url(#path-2-outside-1_3194_649)"/>
<path d="M64.2148 26.1031C63.1351 26.1031 62.339 25.8469 61.8264 25.3343C61.3139 24.8217 61.0576 24.0311 61.0576 22.9623V19.1835H60.256C59.798 19.1835 59.569 18.9544 59.569 18.4964C59.569 18.0384 59.798 17.8094 60.256 17.8094H61.0576V16.6152C61.0576 16.1571 61.2866 15.9281 61.7447 15.9281C62.2027 15.9281 62.4317 16.1571 62.4317 16.6152V17.8094H64.3129C64.771 17.8094 65 18.0384 65 18.4964C65 18.9544 64.771 19.1835 64.3129 19.1835H62.4317V22.9623C62.4317 23.6548 62.5571 24.1238 62.808 24.3691C63.0588 24.6091 63.5277 24.729 64.2148 24.729C64.4275 24.729 64.5938 24.7835 64.7137 24.8926C64.8391 25.0017 64.9019 25.1762 64.9019 25.4161C64.9019 25.8741 64.6728 26.1031 64.2148 26.1031Z" stroke="black" stroke-width="0.6" mask="url(#path-2-outside-1_3194_649)"/>
</g>
<defs>
<clipPath id="clip0_3194_649">
<rect width="65" height="45" fill="white"/>
</clipPath>
</defs>
</svg>
