<svg width="218" height="181" viewBox="0 0 218 181" fill="none" xmlns="http://www.w3.org/2000/svg">
<path d="M132.621 115.922C113.999 133.139 94.408 145.614 77.8606 151.912C69.5806 155.064 62.1783 156.625 56.1032 156.539C50.0356 156.453 45.5122 154.737 42.5924 151.579C39.6727 148.421 38.3165 143.777 38.7056 137.722C39.0952 131.658 41.2309 124.401 45.0211 116.393C52.5956 100.39 66.5649 81.8353 85.1874 64.6177C103.81 47.4001 123.401 34.9259 139.948 28.6273C148.228 25.4756 155.63 23.9145 161.705 24.0007C167.773 24.0868 172.296 25.8023 175.216 28.9603C178.136 32.1183 179.492 36.7621 179.103 42.8178C178.713 48.881 176.578 56.1384 172.787 64.1463C165.213 80.1499 151.244 98.7042 132.621 115.922Z" stroke="#C9FA4C" stroke-width="4.68214"/>
<path d="M8.14697 104.087C5.82943 104.087 3.99547 103.613 2.64509 102.664C1.29472 101.697 0.427923 100.255 0.0447084 98.3391C-0.0830299 97.5727 0.0629568 96.9705 0.482668 96.5325C0.920628 96.0946 1.52282 95.8756 2.28925 95.8756C3.03743 95.8756 3.57576 96.0672 3.90423 96.4504C4.25095 96.8154 4.5338 97.372 4.75278 98.1201C4.97176 98.6676 5.33672 99.0326 5.84768 99.215C6.37688 99.3975 7.14331 99.4888 8.14697 99.4888H17.1251C18.5485 99.4888 19.5065 99.2607 19.9993 98.8045C20.492 98.33 20.7383 97.3537 20.7383 95.8756C20.7383 94.4157 20.492 93.4486 19.9993 92.9741C19.5065 92.4997 18.5485 92.2624 17.1251 92.2624H8.3112C5.68344 92.2624 3.7035 91.5964 2.37137 90.2642C1.03924 88.9321 0.373178 86.9522 0.373178 84.3244C0.373178 81.6419 1.02099 79.6437 2.31663 78.3298C3.6305 76.9977 5.6287 76.3316 8.3112 76.3316H16.8514C21.1398 76.3316 23.6763 78.1382 24.461 81.7514C24.607 82.5178 24.461 83.1109 24.023 83.5306C23.5851 83.9503 22.9829 84.1602 22.2164 84.1602C21.5047 84.1602 20.9755 83.9777 20.6288 83.6127C20.2821 83.2295 20.0084 82.7003 19.8076 82.0251C19.5887 81.5872 19.2511 81.2952 18.7949 81.1492C18.3569 81.0032 17.7091 80.9302 16.8514 80.9302H8.3112C6.92433 80.9302 6.02104 81.1401 5.60132 81.5598C5.18161 81.9795 4.97176 82.901 4.97176 84.3244C4.97176 85.6383 5.19074 86.5233 5.6287 86.9795C6.0849 87.4357 6.97907 87.6638 8.3112 87.6638H17.1251C19.8624 87.6638 21.9153 88.3482 23.284 89.7168C24.6526 91.0854 25.3369 93.1383 25.3369 95.8756C25.3369 98.6311 24.6526 100.693 23.284 102.062C21.9153 103.412 19.8624 104.087 17.1251 104.087H8.14697Z" fill="black"/>
<path d="M44.5156 104.087C40.8842 104.087 38.1834 103.211 36.4133 101.46C34.6615 99.7077 33.7856 97.0252 33.7856 93.4121V87.0617C33.7856 83.3937 34.6615 80.693 36.4133 78.9594C38.1834 77.2076 40.8842 76.3316 44.5156 76.3316H49.0047C52.6544 76.3316 55.3551 77.2076 57.1069 78.9594C58.8588 80.7112 59.7347 83.412 59.7347 87.0617V93.3573C59.7347 96.9887 58.8588 99.6895 57.1069 101.46C55.3551 103.211 52.6544 104.087 49.0047 104.087H44.5156ZM38.3842 93.4121C38.3842 95.7661 38.813 97.372 39.6707 98.2296C40.5283 99.0691 42.1433 99.4888 44.5156 99.4888H49.0047C51.3952 99.4888 53.0102 99.0599 53.8496 98.2023C54.7073 97.3446 55.1361 95.7296 55.1361 93.3573V87.0617C55.1361 84.6711 54.7073 83.0561 53.8496 82.2167C53.0102 81.3591 51.3952 80.9302 49.0047 80.9302H44.5156C42.928 80.9302 41.6871 81.1127 40.7929 81.4777C39.917 81.8244 39.2966 82.4448 38.9316 83.339C38.5666 84.2149 38.3842 85.4558 38.3842 87.0617V93.4121Z" fill="black"/>
<path d="M73.1357 104.087C71.6028 104.087 70.8364 103.321 70.8364 101.788V80.9302H68.8108C67.278 80.9302 66.5115 80.1638 66.5115 78.6309C66.5115 77.0981 67.278 76.3316 68.8108 76.3316H70.8364V76.1127C70.8364 72.5177 71.7032 69.8626 73.4368 68.1473C75.1704 66.4137 77.8255 65.5469 81.4022 65.5469C82.716 65.5469 83.373 66.3133 83.373 67.8462C83.373 69.379 82.716 70.1455 81.4022 70.1455C79.1029 70.1455 77.5335 70.556 76.6941 71.3772C75.8547 72.1984 75.435 73.7769 75.435 76.1127V76.3316H81.0737C82.6066 76.3316 83.373 77.0981 83.373 78.6309C83.373 80.1638 82.6066 80.9302 81.0737 80.9302H75.435V101.788C75.435 103.321 74.6685 104.087 73.1357 104.087Z" fill="black"/>
<path d="M102.629 104.087C99.0159 104.087 96.3517 103.23 94.6363 101.514C92.921 99.799 92.0633 97.153 92.0633 93.5763V80.9302H78.2848C76.752 80.9302 75.9855 80.1638 75.9855 78.6309C75.9855 77.0981 76.752 76.3316 78.2848 76.3316H92.0633V72.3353C92.0633 70.8024 92.8298 70.036 94.3626 70.036C95.8955 70.036 96.6619 70.8024 96.6619 72.3353V76.3316H102.958C104.49 76.3316 105.257 77.0981 105.257 78.6309C105.257 80.1638 104.49 80.9302 102.958 80.9302H96.6619V93.5763C96.6619 95.8938 97.0816 97.4632 97.921 98.2844C98.7605 99.0873 100.33 99.4888 102.629 99.4888C103.341 99.4888 103.897 99.6712 104.299 100.036C104.719 100.401 104.928 100.985 104.928 101.788C104.928 103.321 104.162 104.087 102.629 104.087Z" fill="black"/>
<path d="M116.148 115.036C114.615 115.036 113.849 114.27 113.849 112.737V78.6309C113.849 77.0981 114.615 76.3316 116.148 76.3316C117.681 76.3316 118.447 77.0981 118.447 78.6309V79.3152C119.433 78.3298 120.646 77.5908 122.088 77.0981C123.548 76.5871 125.181 76.3316 126.988 76.3316H129.068C132.718 76.3316 135.418 77.2076 137.17 78.9594C138.922 80.7112 139.798 83.412 139.798 87.0617V93.3573C139.798 96.9887 138.922 99.6895 137.17 101.46C135.418 103.211 132.718 104.087 129.068 104.087H118.447V112.737C118.447 114.27 117.681 115.036 116.148 115.036ZM118.447 99.4888H129.068C131.458 99.4888 133.073 99.0599 133.913 98.2023C134.771 97.3446 135.199 95.7296 135.199 93.3573V87.0617C135.199 84.6711 134.771 83.0561 133.913 82.2167C133.073 81.3591 131.458 80.9302 129.068 80.9302H126.988C124.707 80.9302 122.736 81.2039 121.075 81.7514C119.415 82.2988 118.539 83.1656 118.447 84.3518V99.4888Z" fill="black"/>
<path d="M158.149 104.087C155.357 104.087 153.276 103.403 151.908 102.034C150.557 100.648 149.882 98.5581 149.882 95.7661V67.8462C149.882 66.3133 150.649 65.5469 152.181 65.5469C153.714 65.5469 154.481 66.3133 154.481 67.8462V95.7661C154.481 97.2442 154.718 98.2388 155.192 98.7497C155.685 99.2424 156.671 99.4888 158.149 99.4888C159.718 99.4888 160.503 100.255 160.503 101.788C160.557 103.321 159.773 104.087 158.149 104.087Z" fill="black"/>
<path d="M176.118 104.087C173.053 104.087 170.771 103.339 169.275 101.843C167.779 100.346 167.031 98.0654 167.031 94.9997C167.031 91.934 167.77 89.6529 169.248 88.1566C170.744 86.6602 173.034 85.912 176.118 85.912H187.697C187.587 83.9959 187.086 82.6912 186.191 81.9977C185.297 81.2861 183.764 80.9302 181.593 80.9302H178.418C176.593 80.9302 175.233 81.058 174.339 81.3134C173.445 81.5507 172.815 81.9886 172.45 82.6273C172.122 83.3937 171.784 83.9229 171.438 84.2149C171.091 84.5069 170.571 84.6529 169.877 84.6529C169.111 84.6529 168.509 84.443 168.071 84.0233C167.633 83.5853 167.505 83.0105 167.688 82.2988C168.235 80.2368 169.375 78.7313 171.109 77.7824C172.861 76.8152 175.297 76.3316 178.418 76.3316H181.593C185.242 76.3316 187.943 77.2076 189.695 78.9594C191.447 80.7112 192.323 83.412 192.323 87.0617V101.788C192.323 103.321 191.556 104.087 190.023 104.087C188.491 104.087 187.724 103.321 187.724 101.788V100.556C185.772 102.91 182.925 104.087 179.184 104.087H176.118ZM176.118 99.4888H179.184C180.534 99.4888 181.803 99.3702 182.989 99.1329C184.175 98.8774 185.188 98.4212 186.027 97.7643C186.885 97.1074 187.45 96.1676 187.724 94.9449V90.5106H176.118C174.312 90.5106 173.107 90.8117 172.505 91.4139C171.921 92.0161 171.629 93.2113 171.629 94.9997C171.629 96.8063 171.921 98.0107 172.505 98.6128C173.107 99.1968 174.312 99.4888 176.118 99.4888Z" fill="black"/>
<path d="M214.899 104.087C211.286 104.087 208.622 103.23 206.906 101.514C205.191 99.799 204.333 97.153 204.333 93.5763V80.9302H201.651C200.118 80.9302 199.352 80.1638 199.352 78.6309C199.352 77.0981 200.118 76.3316 201.651 76.3316H204.333V72.3353C204.333 70.8024 205.1 70.036 206.633 70.036C208.165 70.036 208.932 70.8024 208.932 72.3353V76.3316H215.228C216.76 76.3316 217.527 77.0981 217.527 78.6309C217.527 80.1638 216.76 80.9302 215.228 80.9302H208.932V93.5763C208.932 95.8938 209.352 97.4632 210.191 98.2844C211.03 99.0873 212.6 99.4888 214.899 99.4888C215.611 99.4888 216.167 99.6712 216.569 100.036C216.989 100.401 217.198 100.985 217.198 101.788C217.198 103.321 216.432 104.087 214.899 104.087Z" fill="black"/>
</svg>
