<svg width="25" height="25" viewBox="0 0 25 25" fill="none" xmlns="http://www.w3.org/2000/svg">
<path d="M17.7083 13.5417H7.29167L5.625 5.20833H21.875L17.7083 13.5417Z" fill="#55505C"/>
<path d="M19.7917 19.7917C19.7917 20.9423 18.8589 21.875 17.7083 21.875C16.5577 21.875 15.625 20.9423 15.625 19.7917C15.625 18.6411 16.5577 17.7083 17.7083 17.7083C18.8589 17.7083 19.7917 18.6411 19.7917 19.7917Z" fill="#55505C"/>
<path d="M9.375 19.7917C9.375 20.9423 8.44226 21.875 7.29167 21.875C6.14107 21.875 5.20833 20.9423 5.20833 19.7917C5.20833 18.6411 6.14107 17.7083 7.29167 17.7083C8.44226 17.7083 9.375 18.6411 9.375 19.7917Z" fill="#55505C"/>
<path d="M3.125 3.125H5.20833L5.625 5.20833M7.29167 13.5417H17.7083L21.875 5.20833H5.625M7.29167 13.5417L5.625 5.20833M7.29167 13.5417L4.90324 15.9301C4.24702 16.5863 4.71178 17.7083 5.63981 17.7083H17.7083M17.7083 17.7083C16.5577 17.7083 15.625 18.6411 15.625 19.7917C15.625 20.9423 16.5577 21.875 17.7083 21.875C18.8589 21.875 19.7917 20.9423 19.7917 19.7917C19.7917 18.6411 18.8589 17.7083 17.7083 17.7083ZM9.375 19.7917C9.375 20.9423 8.44226 21.875 7.29167 21.875C6.14107 21.875 5.20833 20.9423 5.20833 19.7917C5.20833 18.6411 6.14107 17.7083 7.29167 17.7083C8.44226 17.7083 9.375 18.6411 9.375 19.7917Z" stroke="#55505C" stroke-width="2" stroke-linecap="round" stroke-linejoin="round"/>
</svg>
