<svg width="35" height="36" viewBox="0 0 35 36" fill="none" xmlns="http://www.w3.org/2000/svg">
<path d="M4.375 4.875H7.29167L7.875 7.79167M10.2083 19.4583H24.7917L30.625 7.79167H7.875M10.2083 19.4583L7.875 7.79167M10.2083 19.4583L6.86453 22.8021C5.94583 23.7208 6.59649 25.2917 7.89573 25.2917H24.7917M24.7917 25.2917C23.1808 25.2917 21.875 26.5975 21.875 28.2083C21.875 29.8192 23.1808 31.125 24.7917 31.125C26.4025 31.125 27.7083 29.8192 27.7083 28.2083C27.7083 26.5975 26.4025 25.2917 24.7917 25.2917ZM13.125 28.2083C13.125 29.8192 11.8192 31.125 10.2083 31.125C8.5975 31.125 7.29167 29.8192 7.29167 28.2083C7.29167 26.5975 8.5975 25.2917 10.2083 25.2917C11.8192 25.2917 13.125 26.5975 13.125 28.2083Z" stroke="#55505C" stroke-width="2" strokeLinecap="round" stroke-linejoin="round"/>
</svg>
