<svg width="755" height="303" viewBox="0 0 755 303" fill="none" xmlns="http://www.w3.org/2000/svg">
<path d="M336.292 303.677C231.973 261.768 142.786 211.008 82.9168 162.884C52.9696 138.812 30.4739 115.49 17.0605 94.3639C3.60769 73.1757 -0.413354 54.6957 5.51916 39.9288C11.4517 25.1618 27.14 14.6 51.5124 8.60773C75.8135 2.63297 108.191 1.3566 146.469 4.69305C222.992 11.3631 322.508 36.4139 426.826 78.323C531.144 120.232 620.332 170.992 680.201 219.116C710.148 243.188 732.644 266.51 746.057 287.636C759.51 308.824 763.531 327.304 757.598 342.071C751.666 356.838 735.977 367.4 711.605 373.392C687.304 379.367 654.926 380.643 616.649 377.307C540.126 370.637 440.61 345.586 336.292 303.677Z" stroke="url(#paint0_linear_1902_2930)" strokeWidth="5"/>
<defs>
<linearGradient id="paint0_linear_1902_2930" x1="759.918" y1="343.003" x2="3.19936" y2="38.9968" gradientUnits="userSpaceOnUse">
<stop offset="0.67594" stop-color="#C9FA4C"/>
<stop offset="1" stop-color="#C9FA4C" stop-opacity="0"/>
</linearGradient>
</defs>
</svg>
