<svg width="45" height="46" viewBox="0 0 45 46" fill="none" xmlns="http://www.w3.org/2000/svg">
<g id="tg" clipPath="url(#clip0_655_7661)">
<path id="Vector" d="M22.2354 0.764648C9.96146 0.764648 0 10.7262 0 23.0002C0 35.2742 9.96146 45.2357 22.2354 45.2357C34.5093 45.2357 44.4708 35.2742 44.4708 23.0002C44.4708 10.7262 34.5093 0.764648 22.2354 0.764648ZM32.5526 15.8848C32.2191 19.398 30.7738 27.9364 30.04 31.8721C29.7287 33.5398 29.1061 34.0957 28.528 34.1624C27.2384 34.2736 26.26 33.3174 25.0148 32.4947C23.0581 31.2051 21.9463 30.4046 20.0563 29.1594C17.855 27.7141 19.2781 26.9136 20.5455 25.6239C20.879 25.2904 26.5713 20.1095 26.6825 19.6426C26.6979 19.5719 26.6959 19.4984 26.6765 19.4287C26.6571 19.3589 26.621 19.295 26.5713 19.2424C26.4379 19.1312 26.26 19.1756 26.1044 19.1979C25.9042 19.2424 22.7913 21.3103 16.721 25.4016C15.8316 26.0019 15.0311 26.3132 14.3196 26.291C13.5191 26.2688 12.0071 25.8463 10.8731 25.4683C9.47228 25.0236 8.38274 24.779 8.47169 24.0007C8.51616 23.6005 9.07204 23.2003 10.1171 22.7778C16.6098 19.9539 20.9235 18.0861 23.0803 17.1967C29.2618 14.6174 30.5292 14.1727 31.3741 14.1727C31.552 14.1727 31.9745 14.2171 32.2413 14.4395C32.4637 14.6174 32.5304 14.862 32.5526 15.0398C32.5304 15.1733 32.5749 15.5735 32.5526 15.8848Z" fill="#55505C"/>
</g>
<defs>
<clipPath id="clip0_655_7661">
<rect width="44.4708" height="44.471" fill="white" transform="translate(0 0.764648)"/>
</clipPath>
</defs>
</svg>
