<svg width="20" height="20" viewBox="0 0 20 20" fill="none" xmlns="http://www.w3.org/2000/svg">
<path d="M3.55214 16.4767C4.66961 17.5817 6.18258 17.5754 7.2561 16.4893C8.24801 15.4911 8.51168 14.2669 10.2004 12.0885L12.8497 14.7378L12.8874 15.3593C12.8999 15.5727 13.0443 15.7987 13.2641 15.9243L15.3295 17.092C15.5367 17.205 15.7187 17.2301 15.8694 17.0794L16.7232 16.2256C16.8613 16.0812 16.8425 15.8929 16.7232 15.6795L15.5618 13.6266C15.4425 13.4069 15.2165 13.2625 14.9905 13.2499L14.369 13.2122L11.5941 10.4437C11.8641 10.1486 12.1591 9.841 12.4793 9.52083C13.8291 10.1172 15.4362 9.89123 16.5035 8.81771C17.6774 7.65002 17.8595 5.79176 16.9429 4.32273L16.2272 5.03841V5.04469L15.2165 6.04287C15.0595 6.2061 14.8649 6.21238 14.7017 6.04287L13.9986 5.33975C13.8228 5.16397 13.8165 4.96935 13.9735 4.8124L14.9779 3.80794L15.6999 3.09226C14.2371 2.17569 12.3851 2.35147 11.2112 3.52543C10.2883 4.45456 9.98699 5.77292 10.3072 6.98456L6.86687 3.53171C5.93774 2.60258 4.93956 2.59631 4.02926 3.5066L3.14408 4.39806C2.23378 5.30208 2.24006 6.30027 3.16919 7.2294L6.67853 10.7387C5.24717 11.6679 4.3306 11.988 3.53958 12.7665C2.45351 13.8463 2.44723 15.353 3.55214 16.4767ZM13.2389 5.88593L14.1492 6.78994C14.6201 7.26079 15.2228 7.27334 15.6685 6.82761L16.516 5.97382C16.6227 6.76483 16.3779 7.55585 15.8066 8.12714C14.7833 9.15043 13.0883 9.10021 12.0022 8.02669C10.9224 6.94689 10.8785 5.2393 11.908 4.22228C12.473 3.65727 13.2641 3.41243 14.0488 3.51288L13.2013 4.35412C12.7367 4.81868 12.7555 5.41508 13.2389 5.88593ZM7.74578 7.68768L5.3539 5.27697C5.24089 5.16397 5.23462 4.98191 5.3539 4.86263C5.4669 4.74963 5.65524 4.74335 5.77452 4.86263L8.17267 7.26079C8.29195 7.37379 8.29195 7.5684 8.1664 7.69396C8.06595 7.79441 7.86506 7.81324 7.74578 7.68768ZM6.89826 8.52892L4.49382 6.14332C4.37454 6.01776 4.3871 5.82943 4.5001 5.71014C4.6131 5.59714 4.80772 5.60342 4.91444 5.71014L7.32516 8.11458C7.44444 8.24014 7.43816 8.41592 7.32516 8.52892C7.20588 8.6482 7.01754 8.65448 6.89826 8.52892ZM11.3053 8.71726C11.4184 8.82398 11.5314 8.93071 11.6506 9.0186C7.52605 13.2625 7.95295 14.3234 6.52159 15.7611C5.86868 16.4202 4.97722 16.4454 4.28038 15.7548C3.58353 15.0454 3.61492 14.1602 4.26782 13.5073C5.70546 12.0759 6.76015 12.5028 11.004 8.37825C11.0982 8.49753 11.1986 8.61054 11.3053 8.71726ZM5.38529 15.4032C5.79335 15.4032 6.12608 15.0705 6.12608 14.6562C6.12608 14.2481 5.79335 13.9154 5.38529 13.9154C4.97722 13.9154 4.63822 14.2481 4.63822 14.6562C4.63822 15.0705 4.97722 15.4032 5.38529 15.4032Z" fill="#55505C"/>
</svg>
