<svg width="17" height="16" viewBox="0 0 17 16" fill="none" xmlns="http://www.w3.org/2000/svg">
<g id="Icon">
<g id="Icon_2">
<path d="M4 3.82959L7.375 7.20459L4 3.82959Z" fill="white"/>
<path d="M13.9442 1.38535L11.9735 3.35606C11.6765 3.65307 11.528 3.80158 11.4724 3.97283C11.4234 4.12346 11.4234 4.28572 11.4724 4.43635C11.528 4.6076 11.6765 4.7561 11.9735 5.05312L12.1515 5.23106C12.4485 5.52807 12.597 5.67658 12.7682 5.73222C12.9189 5.78117 13.0811 5.78117 13.2318 5.73222C13.403 5.67658 13.5515 5.52807 13.8485 5.23106L15.692 3.38763C15.8905 3.87075 16 4.39989 16 4.95459C16 7.23276 14.1532 9.07959 11.875 9.07959C11.7377 9.07959 11.6019 9.07288 11.468 9.05977C11.3341 9.04666 11.2021 9.02714 11.0723 9.00154L11.0707 9.00122C10.7272 8.93347 10.5458 8.89775 10.4338 8.9033C10.4273 8.90362 10.421 8.90409 10.4149 8.90469C10.2974 8.9164 10.2395 8.93402 10.1354 8.98973C10.1166 8.99979 10.0978 9.01155 10.0782 9.02537C9.99927 9.08125 9.90878 9.17085 9.76086 9.31873C9.75493 9.32466 9.7489 9.33069 9.74277 9.33682L4.375 14.7046C3.75368 15.3259 2.74632 15.3259 2.125 14.7046C1.50368 14.0833 1.50368 13.0759 2.125 12.4546L7.49277 7.08682C7.68923 6.89036 7.78746 6.79213 7.83986 6.6942C7.89557 6.5901 7.91319 6.53219 7.9249 6.4147C7.93591 6.30418 7.89996 6.12188 7.82805 5.75727C7.77684 5.49763 7.75 5.22925 7.75 4.95459C7.75 2.67642 9.59683 0.82959 11.875 0.82959C12.6291 0.82959 13.336 1.03196 13.9442 1.38535Z" fill="white"/>
<path fillRule="evenodd" clipRule="evenodd" d="M9.95475 9.12484L9.76086 9.31873C9.90878 9.17085 9.99927 9.08125 10.0782 9.02537C10.0342 9.05366 9.9928 9.08679 9.95475 9.12484ZM10.7806 8.93284C10.6666 8.90156 10.5484 8.89137 10.4338 8.9033C10.5458 8.89775 10.7272 8.93347 11.0707 9.00122" fill="white"/>
<path d="M11.468 9.05977C11.3341 9.04666 11.2021 9.02714 11.0723 9.00154L11.0707 9.00122C10.7272 8.93347 10.5458 8.89775 10.4338 8.9033C10.3072 8.91649 10.185 8.9567 10.0782 9.02537C9.99927 9.08125 9.90878 9.17085 9.76086 9.31873L9.74277 9.33682L8.50004 10.5795L12.625 14.7045C13.2463 15.3258 14.2537 15.3258 14.875 14.7045C15.4963 14.0832 15.4963 13.0758 14.875 12.4545L11.4815 9.06106C11.477 9.06064 11.4725 9.06021 11.468 9.05977Z" fill="#55505C"/>
<path d="M4 1.57959L1.75 0.82959L1 1.57959L1.75 3.82959H4V1.57959Z" fill="#55505C"/>
<path d="M4 3.82959L7.375 7.20459M4 3.82959H1.75L1 1.57959L1.75 0.82959L4 1.57959V3.82959ZM9.74277 9.33682L4.375 14.7046C3.75368 15.3259 2.74632 15.3259 2.125 14.7046C1.50368 14.0833 1.50368 13.0759 2.125 12.4546L7.49277 7.08682C7.68923 6.89036 7.78746 6.79213 7.83986 6.6942C7.89557 6.5901 7.91319 6.53219 7.9249 6.4147C7.93591 6.30418 7.89996 6.12188 7.82805 5.75727C7.77684 5.49763 7.75 5.22925 7.75 4.95459C7.75 2.67642 9.59683 0.82959 11.875 0.82959C12.6291 0.82959 13.336 1.03196 13.9442 1.38535L11.9735 3.35606C11.6765 3.65307 11.528 3.80158 11.4724 3.97283C11.4234 4.12346 11.4234 4.28572 11.4724 4.43635C11.528 4.6076 11.6765 4.7561 11.9735 5.05312L12.1515 5.23106C12.4485 5.52807 12.597 5.67658 12.7682 5.73222C12.9189 5.78117 13.0811 5.78117 13.2318 5.73222C13.403 5.67658 13.5515 5.52807 13.8485 5.23106L15.692 3.38763C15.8905 3.87075 16 4.39989 16 4.95459C16 7.23276 14.1532 9.07959 11.875 9.07959C11.7377 9.07959 11.6019 9.07288 11.468 9.05977M9.74277 9.33682C9.7489 9.33069 9.75493 9.32466 9.76086 9.31873M9.74277 9.33682L9.76086 9.31873M9.74277 9.33682L8.50004 10.5795M8.50004 10.5795L12.625 14.7045C13.2463 15.3258 14.2537 15.3258 14.875 14.7045C15.4963 14.0832 15.4963 13.0758 14.875 12.4545L11.4815 9.06106C11.477 9.06064 11.4725 9.06021 11.468 9.05977M8.50004 10.5795L9.76086 9.31873M9.76086 9.31873L9.95475 9.12484C9.9928 9.08679 10.0342 9.05366 10.0782 9.02537M9.76086 9.31873C9.90878 9.17085 9.99927 9.08125 10.0782 9.02537M10.0782 9.02537C10.185 8.9567 10.3072 8.91649 10.4338 8.9033M10.0782 9.02537C10.0978 9.01155 10.1166 8.99979 10.1354 8.98973C10.2395 8.93401 10.2974 8.9164 10.4149 8.90469C10.421 8.90409 10.4273 8.90362 10.4338 8.9033M10.4338 8.9033C10.5484 8.89137 10.6666 8.90156 10.7806 8.93284C10.876 8.95902 10.9727 8.98185 11.0707 9.00122M10.4338 8.9033C10.5458 8.89775 10.7272 8.93347 11.0707 9.00122M11.0707 9.00122L11.0723 9.00154C11.2021 9.02714 11.3341 9.04666 11.468 9.05977M11.0707 9.00122C11.201 9.02698 11.3336 9.0466 11.468 9.05977" stroke="#55505C" stroke-linecap="round" stroke-linejoin="round"/>
</g>
</g>
</svg>
