<svg width="22" height="22" viewBox="0 0 22 22" fill="none" xmlns="http://www.w3.org/2000/svg">
<path d="M4.5293 4.33333H4.65871C5.13217 4.32191 5.59097 4.1758 5.97509 3.91412C6.35921 3.65245 6.65077 3.28738 6.81165 2.86667L6.85165 2.75222L6.96577 2.42889C7.06341 2.15222 7.11283 2.01444 7.17753 1.89667C7.30484 1.66599 7.48754 1.46666 7.71103 1.31462C7.93453 1.16259 8.1926 1.06207 8.46459 1.02111C8.60224 1 8.75636 1 9.06459 1H12.9352C13.2434 1 13.3975 1 13.5352 1.02111C13.8072 1.06207 14.0652 1.16259 14.2887 1.31462C14.5122 1.46666 14.6949 1.66599 14.8222 1.89667C14.8869 2.01444 14.9364 2.15222 15.034 2.42889L15.1481 2.75222C15.2972 3.2203 15.6056 3.6289 16.0254 3.91474C16.4452 4.20057 16.9531 4.3477 17.4705 4.33333" stroke="#0E1004" stroke-width="1.5"/>
<path d="M21 4.33398H1M19.0388 7.11176L18.4976 14.7784C18.2894 17.7273 18.1859 19.2018 17.1682 20.1007C16.1506 21.0007 14.5847 21.0007 11.4553 21.0007H10.5447C7.41529 21.0007 5.84941 21.0007 4.83176 20.1007C3.81412 19.2018 3.70941 17.7273 3.50235 14.7784L2.96118 7.11176M8.05882 9.88954L8.64706 15.4451M13.9412 9.88954L13.3529 15.4451" stroke="#0E1004" stroke-width="1.5" stroke-linecap="round"/>
</svg>
