<svg width="45" height="46" viewBox="0 0 45 46" fill="none" xmlns="http://www.w3.org/2000/svg">
<g id="vk" clip-path="url(#clip0_655_7662)">
<path id="Vector" d="M22.7062 0.764648C10.4258 0.764648 0.470825 10.7195 0.470825 22.9999C0.470825 35.2802 10.4258 45.2351 22.7062 45.2351C34.9866 45.2351 44.9416 35.2802 44.9416 22.9999C44.9416 10.7195 34.9866 0.764648 22.7062 0.764648ZM31.2576 25.8511C31.2576 25.8511 33.224 27.792 33.7081 28.693C33.722 28.7115 33.729 28.7301 33.7336 28.7393C33.9305 29.0705 33.9768 29.3276 33.8795 29.5199C33.7174 29.8395 33.1615 29.997 32.9716 30.0109H29.4973C29.2564 30.0109 28.7515 29.9484 28.14 29.5268C27.6698 29.1979 27.2066 28.6583 26.7549 28.1325C26.0809 27.3496 25.4972 26.6733 24.9089 26.6733C24.8342 26.6732 24.7599 26.6849 24.6889 26.7081C24.2442 26.8517 23.6744 27.4863 23.6744 29.1771C23.6744 29.7052 23.2575 30.0086 22.9633 30.0086H21.3721C20.8301 30.0086 18.0067 29.8187 15.5052 27.1806C12.4432 23.9495 9.68693 17.4689 9.66377 17.4086C9.49006 16.9894 9.84907 16.7647 10.2405 16.7647H13.7495C14.2174 16.7647 14.3703 17.0496 14.4768 17.3021C14.6019 17.5962 15.0605 18.7659 15.8132 20.0815C17.0339 22.2263 17.782 23.0971 18.3819 23.0971C18.4944 23.0958 18.6049 23.0672 18.7039 23.0138C19.4867 22.5783 19.3408 19.7873 19.3061 19.2083C19.3061 19.0994 19.3037 17.9599 18.903 17.4133C18.6158 17.0172 18.1271 16.8667 17.8306 16.8111C17.9506 16.6455 18.1087 16.5112 18.2916 16.4196C18.8289 16.151 19.7971 16.1116 20.7583 16.1116H21.2934C22.3356 16.1255 22.6043 16.1926 22.9818 16.2876C23.7462 16.4706 23.7624 16.9639 23.6952 18.6524C23.6744 19.1319 23.6535 19.6739 23.6535 20.3131C23.6535 20.4521 23.6466 20.6003 23.6466 20.7578C23.6234 21.6171 23.5956 22.5922 24.2025 22.9929C24.2816 23.0426 24.3731 23.069 24.4665 23.0694C24.6773 23.0694 25.3119 23.0694 27.0305 20.1209C27.5606 19.1718 28.0212 18.1857 28.4087 17.1701C28.4434 17.1098 28.5453 16.9246 28.6658 16.8528C28.7547 16.8074 28.8532 16.7844 28.953 16.7856H33.0781C33.5274 16.7856 33.8355 16.8528 33.8934 17.0265C33.9953 17.3021 33.8749 18.1429 31.9918 20.693L31.151 21.8024C29.444 24.0398 29.444 24.1533 31.2576 25.8511Z" fill="#55505C"/>
</g>
<defs>
<clipPath id="clip0_655_7662">
<rect width="44.4708" height="44.471" fill="white" transform="translate(0.470825 0.764648)"/>
</clipPath>
</defs>
</svg>
